<svg width="50" height="50" viewBox="0 0 50 50" fill="none" xmlns="http://www.w3.org/2000/svg">
<path d="M50 35C50 43.2843 43.2843 50 35 50C26.7157 50 20 43.2843 20 35C20.9 37.0144 24.2217 36.8561 24.2217 32.4621C28.2565 33.3712 34.6824 27.9167 29.4521 21.0594C31.1682 20.3759 33.0402 20 35 20C43.2843 20 50 26.7157 50 35Z" fill="#0096FF"/>
<g filter="url(#filter0_bi_2_40)">
<circle cx="22" cy="22" r="22" fill="url(#paint0_linear_2_40)" fill-opacity="0.5"/>
</g>
<path fill-rule="evenodd" clip-rule="evenodd" d="M21.2299 9C22.2171 9 23.0175 9.77438 23.0175 10.7296V12.2201H27.0829C28.0701 12.2201 28.8705 12.9945 28.8705 13.9497C28.8705 14.905 28.0701 15.6794 27.0829 15.6794H19.809C18.5753 15.6794 17.5752 16.647 17.5752 17.8407C17.5752 19.0344 18.5753 20.002 19.809 20.002H23.8542C27.2484 20.002 30 22.6643 30 25.9485C30 29.0209 27.4258 31.5116 24.2504 31.5116H23.0175V33.2704C23.0175 34.2256 22.2171 35 21.2299 35C20.2426 35 19.4423 34.2256 19.4423 33.2704V31.5116H16.9171C15.9299 31.5116 15.1295 30.7372 15.1295 29.7819C15.1295 28.8267 15.9299 28.0523 16.9171 28.0523H24.2504C25.4513 28.0523 26.4248 27.1104 26.4248 25.9485C26.4248 24.5748 25.2739 23.4613 23.8542 23.4613H19.809C16.6008 23.4613 14 20.9449 14 17.8407C14 14.8557 16.4049 12.4142 19.4423 12.2311V10.7296C19.4423 9.77438 20.2426 9 21.2299 9Z" fill="url(#paint1_linear_2_40)"/>
<defs>
<filter id="filter0_bi_2_40" x="-49.0159" y="-49.0159" width="142.032" height="142.032" filterUnits="userSpaceOnUse" color-interpolation-filters="sRGB">
<feFlood flood-opacity="0" result="BackgroundImageFix"/>
<feGaussianBlur in="BackgroundImageFix" stdDeviation="24.508"/>
<feComposite in2="SourceAlpha" operator="in" result="effect1_backgroundBlur_2_40"/>
<feBlend mode="normal" in="SourceGraphic" in2="effect1_backgroundBlur_2_40" result="shape"/>
<feColorMatrix in="SourceAlpha" type="matrix" values="0 0 0 0 0 0 0 0 0 0 0 0 0 0 0 0 0 0 127 0" result="hardAlpha"/>
<feOffset dx="-1.18" dy="-1.18"/>
<feGaussianBlur stdDeviation="1"/>
<feComposite in2="hardAlpha" operator="arithmetic" k2="-1" k3="1"/>
<feColorMatrix type="matrix" values="0 0 0 0 1 0 0 0 0 1 0 0 0 0 1 0 0 0 0.3 0"/>
<feBlend mode="normal" in2="shape" result="effect2_innerShadow_2_40"/>
</filter>
<linearGradient id="paint0_linear_2_40" x1="40.0576" y1="38.953" x2="21.9753" y2="22.0264" gradientUnits="userSpaceOnUse">
<stop stop-color="white"/>
<stop offset="1" stop-color="white"/>
</linearGradient>
<linearGradient id="paint1_linear_2_40" x1="31.1869" y1="36.4959" x2="8.17362" y2="23.356" gradientUnits="userSpaceOnUse">
<stop stop-color="#1E1D1D"/>
<stop offset="1" stop-color="#4A4A4A"/>
</linearGradient>
</defs>
</svg>
