<svg width="181" height="115" viewBox="0 0 181 115" fill="none" xmlns="http://www.w3.org/2000/svg">
<path d="M140.783 44.9349C163.485 58.041 161.382 85.6379 139.319 96.8153C116.616 109.921 79.8085 109.921 57.1062 96.8153C33.9251 84.1525 32.9112 58.3382 55.6135 45.2321C78.3159 32.126 118.08 31.8288 140.783 44.9349Z" fill="#1864F8"/>
<circle cx="47.4644" cy="47.4644" r="46.4644" transform="matrix(0.866044 -0.499967 0.866044 0.499967 16 67.5388)" fill="#3383FF" stroke="url(#paint0_linear_16_243)" stroke-width="2"/>
<path d="M49.511 77.1444C13.8881 60.7671 25.9551 37.3191 36.4416 27.6423C46.7738 28.4519 72.7354 30.3488 93.9241 31.4591C120.41 32.847 121.567 74.5999 109.538 79.3419C97.5095 84.084 99.4757 85.4719 49.511 77.1444Z" fill="#337EFF"/>
<g filter="url(#filter0_b_16_243)">
<path d="M123.324 75.0486L123.278 75.072L123.233 75.0978C112.237 81.4456 97.7067 84.6737 83.0735 84.6737C68.4402 84.6737 53.9096 81.4456 42.914 75.0978L42.8947 75.0867L42.8751 75.076C31.7503 68.999 26.1948 59.9267 25.9074 51.0512C25.6206 42.1956 30.5628 33.0634 41.4214 26.7947C52.4056 20.4536 67.6714 17.1435 83.0683 17.0703C98.4666 16.997 113.723 20.1624 124.697 26.4976C135.491 32.7288 140.219 42.2689 139.807 51.4361C139.394 60.6299 133.8 69.7414 123.324 75.0486Z" fill="white" fill-opacity="0.5" stroke="url(#paint1_linear_16_243)" stroke-width="3.78745"/>
</g>
<circle cx="47.4644" cy="47.4644" r="46.4644" transform="matrix(0.866044 -0.499967 0.866044 0.499967 0.861511 47.4612)" fill="white" fill-opacity="0.5" stroke="url(#paint2_linear_16_243)" stroke-width="2"/>
<g filter="url(#filter1_i_16_243)">
<path d="M75.0697 37.0099C74.8838 36.9101 74.7746 36.7712 74.7676 36.6246C74.7603 36.4778 74.8555 36.3355 75.0317 36.2295C75.2078 36.1235 75.4503 36.0626 75.7045 36.0607C75.9591 36.0586 76.2039 36.1157 76.3845 36.2189C76.9122 36.5102 77.6264 36.6622 78.3564 36.6388C79.0861 36.6151 79.7674 36.4184 80.2377 36.0948C80.5748 35.8632 81.173 35.8327 81.574 36.0268C81.9748 36.221 82.0267 36.5664 81.6899 36.7982C81.6051 36.8568 81.5162 36.9128 81.423 36.9666C80.5837 37.4526 79.4486 37.7293 78.261 37.7377C77.0734 37.7465 75.9281 37.486 75.0704 37.0124L75.0697 37.0099ZM97.0466 46.224L97.0469 46.2239C96.2505 46.7681 95.9212 47.4905 96.1509 48.1897C96.3809 48.8891 97.1453 49.4906 98.231 49.8272C98.5998 49.9415 99.0547 49.9028 99.3512 49.732C99.4167 49.6938 99.4725 49.6508 99.5165 49.6038C99.6363 49.4754 99.6626 49.325 99.5899 49.1858C99.5168 49.0465 99.3513 48.9296 99.1292 48.8612C98.5468 48.6808 98.1375 48.3581 98.0143 47.9832C97.8908 47.6084 98.0676 47.2213 98.4944 46.9296C98.8328 46.6983 98.7827 46.3527 98.3826 46.1577C97.9828 45.9625 97.384 45.9919 97.0456 46.2232L97.0466 46.224ZM97.2572 35.876C97.5295 36.0832 97.7726 36.3031 97.9838 36.5331L100.551 35.0509C100.922 34.8368 101.523 34.8368 101.893 35.0505C102.263 35.2642 102.263 35.611 101.892 35.825L98.7261 37.6527C98.7345 37.672 98.7407 37.6914 98.7494 37.7108C99.8458 37.9255 100.821 38.3075 101.571 38.8165L103.882 37.4821C104.061 37.3791 104.302 37.3215 104.554 37.321L106.45 37.3196C106.75 36.8577 107.408 36.5042 108.227 36.3656C109.047 36.2266 109.931 36.3183 110.613 36.6135C111.296 36.9086 111.698 37.3723 111.697 37.8651C111.696 38.3579 111.294 38.8219 110.61 39.1175C109.927 39.4129 109.042 39.5057 108.224 39.3674C107.405 39.2292 106.747 38.8761 106.449 38.4149L104.945 38.4166L102.597 39.7721C103.046 40.3852 103.199 41.0575 103.039 41.7173C102.878 42.3771 102.411 42.9996 101.686 43.5188C101.801 43.5545 101.914 43.5932 102.025 43.6325L106.064 41.3006C106.24 41.1931 106.484 41.1315 106.74 41.1296C106.996 41.1275 107.242 41.1852 107.423 41.2896C107.604 41.394 107.704 41.5364 107.701 41.6841C107.697 41.8318 107.59 41.9725 107.404 42.0743L103.469 44.3463C103.831 44.5883 104.135 44.8567 104.375 45.1449L106.324 44.02C106.441 43.9518 106.588 43.903 106.749 43.8779L109.111 43.5116L109.111 43.5116C109.194 43.0213 109.672 42.5816 110.401 42.3253C111.13 42.0689 112.025 42.0253 112.817 42.2083C113.61 42.3913 114.205 42.779 114.425 43.2546C114.646 43.7304 114.465 44.2386 113.937 44.6262C113.41 45.0139 112.597 45.2355 111.744 45.2246C110.891 45.2136 110.097 44.9713 109.602 44.5706L107.482 44.8967L104.955 46.3557C105.072 47.0524 104.837 47.7539 104.278 48.3759C104.57 48.9501 104.581 49.5602 104.308 50.138C104.035 50.716 103.49 51.2389 102.733 51.649C102.524 51.7692 102.302 51.881 102.067 51.9834C100.951 52.4938 99.5398 52.7395 98.122 52.6705C98.2416 53.489 97.8159 54.3038 96.9318 54.9482C96.2457 55.5075 95.2766 55.9308 94.1572 56.1593C93.0385 56.3878 91.8247 56.4106 90.683 56.2246C89.6059 56.547 88.3903 56.6825 87.1834 56.615L84.6562 58.074L84.088 59.2953C84.7824 59.5814 85.2024 60.0395 85.2215 60.5321C85.2405 61.0247 84.8564 61.4942 84.1846 61.7989C83.5135 62.1037 82.6326 62.2082 81.8084 62.0808C80.9838 61.9536 80.3122 61.6095 79.9953 61.1522C79.6784 60.695 79.7536 60.1779 80.198 59.7566C80.6425 59.3357 81.4039 59.0597 82.2539 59.0122L82.8902 57.6495C82.9333 57.5567 83.0179 57.4719 83.136 57.4041L85.0843 56.2794C84.5851 56.1409 84.1201 55.965 83.7011 55.7562L79.7674 58.0271C79.5909 58.1344 79.3472 58.196 79.0914 58.1981C78.8353 58.2003 78.5889 58.1423 78.4081 58.0379C78.2272 57.9335 78.127 57.7914 78.131 57.6436C78.1343 57.4957 78.241 57.355 78.4271 57.2534L82.4665 54.9214C82.3983 54.8573 82.3317 54.7925 82.2695 54.726C81.3701 55.1442 80.2919 55.414 79.1489 55.5066C78.006 55.5992 76.8415 55.5112 75.7794 55.2519L73.4296 56.6085L73.4285 57.4754C74.2284 57.6467 74.841 58.0256 75.0822 58.4981C75.3231 58.9705 75.1645 59.4812 74.6536 59.8764C74.1428 60.2716 73.3396 60.5048 72.486 60.5063C71.6327 60.5075 70.8288 60.2767 70.3162 59.8832C69.8038 59.4895 69.6427 58.9793 69.8817 58.506C70.121 58.0329 70.7321 57.652 71.5311 57.4784L71.5318 56.3844C71.5323 56.2389 71.6325 56.0999 71.8108 55.9969L74.1205 54.6635C73.2387 54.2304 72.577 53.6677 72.2052 53.0348C72.1719 53.0299 72.1382 53.0264 72.1046 53.0213L68.9385 54.8491C68.5678 55.0631 67.9671 55.0634 67.5969 54.8497C67.2268 54.636 67.2269 54.289 67.5976 54.075L70.1644 52.5932C69.7664 52.471 69.3859 52.3305 69.0269 52.1733L66.2333 53.786C66.0709 53.8798 65.8556 53.9365 65.6269 53.9456L62.8701 54.0533C62.6246 54.5249 62.0085 54.9025 61.2079 55.0725C60.407 55.2423 59.5151 55.1845 58.8003 54.9167C58.0856 54.6488 57.6319 54.2022 57.5756 53.711C57.5192 53.2199 57.8665 52.7418 58.5137 52.4207C59.1609 52.0995 60.0315 51.9729 60.8639 52.079C61.6965 52.185 62.3931 52.5112 62.7442 52.9594L65.1492 52.8636L67.6575 51.4156C67.1744 51.0838 66.7701 50.7161 66.4556 50.3226L65.4124 50.9248C65.236 51.0321 64.9922 51.0937 64.7361 51.0959C64.48 51.0978 64.2337 51.0402 64.0528 50.9358C63.8719 50.8314 63.7721 50.6891 63.7754 50.5413C63.7793 50.3934 63.886 50.2527 64.0718 50.1509L65.8084 49.1483C65.5664 48.3941 65.634 47.6171 66.0063 46.8802L65.7878 46.754L63.4597 48.098C63.089 48.312 62.4884 48.3123 62.1179 48.0984C61.7477 47.8847 61.7481 47.5379 62.1188 47.3239L64.8621 45.7402C64.6556 45.2347 64.75 44.7035 65.1307 44.2325C64.6764 44.0703 64.2563 43.8785 63.8784 43.6607L61.2657 45.169C61.0893 45.2763 60.8455 45.3379 60.5898 45.34C60.3337 45.3422 60.0873 45.2842 59.9064 45.1798C59.7255 45.0754 59.6254 44.9333 59.6293 44.7855C59.6326 44.6376 59.7393 44.4969 59.9254 44.3952L62.7246 42.7793C62.4258 42.473 62.1985 42.1452 62.0497 41.8044C61.9956 41.6803 61.9556 41.555 61.9227 41.4294L57.228 44.1397L57.015 46.3605L57.0153 46.3604C57.3249 46.4379 57.6064 46.5486 57.8448 46.6867C58.4071 47.0105 58.6944 47.4608 58.6309 47.9184C58.5671 48.3758 58.1587 48.7945 57.5141 49.0635C56.8695 49.3324 56.0531 49.4245 55.2808 49.3156C54.5089 49.2066 53.8594 48.9072 53.5038 48.4971C53.1485 48.0868 53.123 47.607 53.4344 47.1845C53.7456 46.7619 54.3622 46.4393 55.1214 46.3019L55.3543 43.8716C55.3673 43.7372 55.4659 43.6098 55.6311 43.5144L62.0899 39.7858C62.3036 39.3289 62.6562 38.8974 63.1312 38.5114C62.8477 37.7117 63.1192 36.8792 63.8874 36.193C64.6553 35.5067 65.8591 35.0217 67.2392 34.8418C67.5508 34.0451 68.391 33.3501 69.5798 32.9068C70.7683 32.4633 72.2104 32.3066 73.5957 32.4702C74.2643 32.196 75.0117 31.9925 75.8032 31.8691L82.2623 28.1403C82.4278 28.0447 82.6482 27.9876 82.8815 27.9801L87.0914 27.8456C87.3468 27.375 87.9714 27.0012 88.7766 26.8365C89.5822 26.6719 90.4744 26.7359 91.1841 27.0092C91.8944 27.2825 92.3393 27.733 92.3851 28.2253C92.431 28.7175 92.0724 29.1938 91.4174 29.5108C90.7624 29.8274 89.8875 29.9479 89.0564 29.8353C88.225 29.7229 87.5347 29.391 87.1935 28.9395L83.3465 29.0625L78.6512 31.7731C78.8696 31.7915 79.0854 31.8154 79.3007 31.8464C79.891 31.9323 80.4588 32.0635 80.9894 32.236L83.7885 30.6201C83.9647 30.5126 84.2084 30.451 84.4645 30.4491C84.7206 30.4468 84.9667 30.5046 85.1475 30.6091C85.3284 30.7135 85.4286 30.8555 85.425 31.0036C85.4214 31.1512 85.3146 31.2919 85.1288 31.3938L82.5142 32.9032C82.8916 33.1214 83.224 33.3637 83.5047 33.6262C84.3209 33.4066 85.2407 33.3519 86.1163 33.4711L88.8596 31.8874C89.2303 31.6734 89.831 31.6731 90.2012 31.8868C90.5717 32.1007 90.5713 32.4475 90.2005 32.6615L87.8725 34.0055C87.9485 34.0457 88.0226 34.0874 88.0911 34.1317C89.3674 33.9167 90.7132 33.8775 92.0196 34.0172L93.7562 33.0147C93.9327 32.9074 94.1767 32.8456 94.4325 32.8435C94.6883 32.8415 94.935 32.8993 95.1158 33.0037C95.2964 33.1079 95.3966 33.2503 95.3929 33.398C95.3893 33.5457 95.2823 33.6865 95.0965 33.7884L94.0571 34.3885C94.7391 34.5702 95.3756 34.8034 95.9504 35.0823L98.4587 33.6343L98.6246 32.2459L98.6249 32.2461C97.8469 32.0432 97.2809 31.6405 97.0968 31.1595C96.9126 30.678 97.132 30.1747 97.6888 29.8007C98.246 29.4266 99.075 29.2255 99.9271 29.2581C100.779 29.2908 101.554 29.5531 102.018 29.9664C102.483 30.3795 102.583 30.8951 102.288 31.358C101.993 31.8207 101.338 32.1768 100.52 32.3186L100.329 33.9123L100.329 33.9121C100.313 34.0441 100.215 34.1684 100.053 34.2622L97.2572 35.876ZM99.1725 31.1533C99.4038 31.2869 99.7521 31.327 100.055 31.2546C100.358 31.1821 100.556 31.0116 100.556 30.8225C100.556 30.6333 100.359 30.4629 100.057 30.3905C99.7539 30.3183 99.4056 30.3584 99.1736 30.4923C98.8578 30.675 98.8571 30.9705 99.1725 31.1533ZM89.0998 27.9817C88.8678 28.1152 88.7981 28.3165 88.9231 28.4913C89.0478 28.6659 89.3431 28.7798 89.6708 28.7797C89.9983 28.7797 90.2941 28.6658 90.4198 28.4911C90.5453 28.3162 90.4764 28.1151 90.2447 27.9814C89.9287 27.7993 89.4166 27.7992 89.0998 27.9817ZM56.5018 47.4612C56.2701 47.3275 55.9222 47.2875 55.6193 47.36C55.3163 47.4324 55.1186 47.603 55.1181 47.792C55.1178 47.9812 55.3151 48.1517 55.6176 48.224C55.9203 48.2962 56.2687 48.2561 56.5006 48.1222C56.8165 47.9395 56.8168 47.6438 56.5018 47.4612ZM60.8505 53.2767C60.6192 53.1428 60.2709 53.1026 59.9677 53.1749C59.6647 53.2473 59.4667 53.4177 59.4665 53.6069C59.4656 53.7961 59.6629 53.9666 59.9653 54.0389C60.2681 54.1115 60.6168 54.0712 60.8487 53.9373C61.1642 53.7548 61.1649 53.4593 60.8505 53.2767ZM73.0531 58.6092C72.8217 58.4756 72.4732 58.4357 72.1706 58.5083C71.8679 58.5809 71.6702 58.7515 71.67 58.9407C71.6701 59.1297 71.8674 59.3001 72.1701 59.3723C72.4729 59.4445 72.8212 59.4041 73.0529 59.2703C73.3687 59.0873 73.3688 58.7918 73.0531 58.6092ZM83.0875 60.2371C82.8561 60.1036 82.5079 60.0634 82.2053 60.136C81.9023 60.2085 81.7049 60.3792 81.7044 60.5683C81.7045 60.7573 81.9015 60.9279 82.2042 61.0001C82.5066 61.0725 82.8553 61.0322 83.087 60.8985C83.4028 60.7154 83.4032 60.4197 83.0875 60.2371ZM111.23 43.9906C111.461 44.1243 111.809 44.1643 112.112 44.0919C112.415 44.0193 112.613 43.8487 112.613 43.6595C112.613 43.4704 112.416 43.3 112.113 43.2278C111.811 43.1555 111.462 43.1957 111.23 43.3295C110.914 43.5123 110.914 43.8082 111.23 43.9906ZM108.41 38.1978C108.641 38.332 108.989 38.3722 109.293 38.2999C109.596 38.2277 109.794 38.0573 109.794 37.8679C109.795 37.6785 109.598 37.508 109.295 37.4355C108.992 37.3633 108.643 37.4036 108.412 37.5377C108.096 37.7202 108.096 38.0153 108.41 38.1978ZM95.7534 52.0775L67.7345 35.9022C66.6922 36.0218 65.8001 36.4089 65.3105 36.9536C64.821 37.4986 64.7875 38.1419 65.2193 38.7022C65.6507 39.2623 66.5008 39.6782 67.529 39.8323C68.0361 39.9083 68.3395 40.2077 68.2068 40.5004C68.0737 40.7932 67.5551 40.9686 67.0479 40.8926C65.8714 40.7166 64.8332 40.316 64.102 39.7556C63.6088 40.4667 63.6229 41.2609 64.1404 41.965C64.6583 42.6693 65.6381 43.2263 66.8659 43.5143C67.1534 43.582 67.3654 43.7267 67.4331 43.9018C67.5004 44.0768 67.4155 44.26 67.2047 44.3921C66.7645 44.6681 66.5721 45.0466 66.6844 45.4157C66.7961 45.7847 67.2004 46.1023 67.7766 46.2744C68.3531 46.4467 69.0357 46.4538 69.6232 46.2937C70.0975 46.1647 70.6628 46.2819 70.8856 46.5556C71.1083 46.8292 70.9045 47.1557 70.4301 47.2847C69.5843 47.5146 68.6252 47.565 67.7222 47.4271C67.3475 48.3965 67.6413 49.4113 68.5413 50.2567C69.4409 51.1018 70.8761 51.7111 72.5424 51.9553C74.2092 52.1993 75.9752 52.0591 77.4673 51.564C77.88 51.4272 78.4043 51.4875 78.6931 51.7054C78.982 51.9233 78.9464 52.2314 78.61 52.4256C78.5507 52.4602 78.4837 52.4895 78.4108 52.5133C77.1843 52.9201 75.802 53.1437 74.3894 53.1641C75.1483 53.9143 76.5083 54.3949 78.0118 54.4439C79.5156 54.4928 80.9627 54.1038 81.8665 53.4074C82.0872 53.2379 82.4578 53.157 82.8176 53.1998C83.1771 53.2425 83.4616 53.4013 83.5473 53.6074C83.8738 54.3949 84.8363 55.0434 86.1336 55.3506C87.4311 55.658 88.9062 55.5865 90.099 55.1589C90.3586 55.0662 90.6792 55.0511 90.9608 55.1186C91.7563 55.2899 92.6292 55.301 93.438 55.1505C94.2469 55.0002 94.9448 54.6972 95.4193 54.29C96.1714 53.7152 96.7029 52.7951 95.7539 52.0777L95.7534 52.0775ZM98.9774 38.9683C98.9425 39.784 98.5552 40.582 97.8505 41.29C97.8093 41.3321 97.7581 41.3706 97.6986 41.405C97.3622 41.5992 96.8285 41.6198 96.4511 41.453C96.0737 41.2863 95.969 40.9836 96.2061 40.7454C97.0637 39.884 97.3064 38.8643 96.8838 37.9022C96.461 36.9403 95.4056 36.1118 93.9413 35.5922C92.477 35.0727 90.7191 34.903 89.0402 35.1196C89.2788 35.6407 89.1915 36.1943 88.7934 36.6827C88.57 36.9565 88.0047 37.0744 87.5303 36.9456C87.0563 36.817 86.8533 36.4907 87.077 36.217C87.354 35.8777 87.3417 35.4836 87.0437 35.151C86.7453 34.8182 86.1953 34.585 85.5558 34.5203C84.9166 34.4554 84.2612 34.5667 83.783 34.8208C83.5542 34.9425 83.2369 34.9916 82.9335 34.9525C82.6304 34.9136 82.3798 34.7912 82.2622 34.6251C81.7634 33.9162 80.7989 33.3508 79.5789 33.0518C78.3589 32.7529 76.9831 32.7448 75.7518 33.0296C76.7221 33.4516 77.4164 34.0511 77.7212 34.7303C77.8529 35.0231 77.5491 35.3225 77.0415 35.3992C76.5345 35.4758 76.0163 35.3008 75.8842 35.0079C75.6176 34.4145 74.8973 33.9237 73.9268 33.6745C72.9566 33.4254 71.8422 33.4447 70.898 33.7273C69.9543 34.0097 69.2838 34.5248 69.0768 35.1267L97.0957 51.302C98.3381 51.85 99.9337 51.5425 100.926 51.1094C101.631 50.8356 102.156 50.4324 102.417 49.9656C102.677 49.4986 102.658 48.9948 102.361 48.5354C102.245 48.373 102.27 48.1877 102.431 48.038C103.172 47.3496 103.295 46.4979 102.763 45.749C102.231 44.9997 101.108 44.4444 99.7436 44.2556C99.3866 44.2061 99.1114 44.0421 99.0372 43.8344C98.963 43.6267 99.1035 43.413 99.3971 43.2855C100.603 42.7636 101.277 41.9281 101.192 41.0601C101.107 40.1921 100.275 39.4068 98.9753 38.9689L98.9774 38.9683ZM93.2853 39.264C92.8599 39.0879 92.2673 39.1442 91.9614 39.3899C91.0389 40.1316 89.5678 40.5808 87.9875 40.6031C86.4072 40.6257 84.9018 40.2184 83.9212 39.5037C83.5959 39.2666 82.9994 39.227 82.5885 39.415C82.1773 39.6031 82.1077 39.9478 82.4327 40.1847C83.5832 41.0173 85.259 41.5524 87.0933 41.6725C87.2478 42.4162 87.8517 43.1042 88.7988 43.6157C89.7459 44.1272 90.9756 44.4289 92.2716 44.4683C92.7875 44.4778 93.2224 44.2472 93.2502 43.9493C93.278 43.6518 92.8883 43.3962 92.3733 43.3747C91.5546 43.3495 90.775 43.1647 90.1626 42.85C89.5501 42.5357 89.1413 42.1103 89.0029 41.6438C90.4325 41.5036 91.7521 41.1103 92.7787 40.5187C93.0425 40.3668 93.2839 40.2027 93.5015 40.0281C93.8072 39.7823 93.7104 39.4402 93.2853 39.264ZM69.6545 39.3455C69.4706 39.446 69.3642 39.5843 69.3587 39.7302C69.3532 39.8761 69.4493 40.0169 69.6255 40.1215C70.1302 40.4261 70.3935 40.8384 70.3529 41.2599C70.3119 41.6811 69.9712 42.0744 69.4106 42.3459C69.025 42.5427 68.9806 42.881 69.3109 43.1084C69.6412 43.3358 70.2259 43.3695 70.6287 43.1845C70.7303 43.1355 70.8273 43.0842 70.9205 43.0304C71.762 42.5461 72.2417 41.8906 72.2562 41.205C72.2711 40.5195 71.8199 39.8584 70.9995 39.3632C70.8258 39.2575 70.5863 39.1963 70.3336 39.193C70.081 39.1897 69.837 39.2446 69.6546 39.3456L69.6545 39.3455ZM86.954 52.0486C86.5534 52.2439 86.5026 52.5896 86.8406 52.8204C87.1784 53.0514 87.7771 53.0803 88.1777 52.885C88.6831 52.6385 89.3536 52.5365 90.0028 52.6078C90.6523 52.6789 91.2113 52.9152 91.5236 53.2514C91.6422 53.3796 91.8446 53.4752 92.086 53.5174C92.3271 53.5594 92.5875 53.5442 92.8101 53.475C92.8914 53.4496 92.9659 53.4174 93.032 53.3796C93.3279 53.2084 93.3949 52.9458 93.197 52.7329C92.6139 52.1061 91.572 51.6648 90.3605 51.5321C89.1494 51.3995 87.8979 51.5896 86.9553 52.0493L86.954 52.0486ZM80.8281 47.9088C81.5433 48.2777 81.9729 48.7968 82.0211 49.3502C82.029 49.4973 82.1394 49.6363 82.3272 49.7357C82.5149 49.8351 82.7641 49.8868 83.0186 49.8789C83.2735 49.8709 83.5122 49.8043 83.6809 49.6936C83.8496 49.5832 83.9342 49.4381 83.9157 49.2913C83.8475 48.5431 83.3246 47.8334 82.4386 47.2866C81.5529 46.7397 80.361 46.3911 79.0726 46.302C78.8649 45.243 77.9379 44.2755 76.4954 43.6115C76.085 43.4239 75.488 43.4641 75.1624 43.7013C74.8365 43.9386 74.9053 44.2828 75.316 44.4706C76.554 45.0367 77.2592 45.906 77.2204 46.8181C77.1819 47.7304 76.4036 48.5798 75.1189 49.1122C74.9073 49.1956 74.7625 49.3244 74.7178 49.4699C74.6731 49.6151 74.7318 49.7649 74.8809 49.8848C75.0299 50.0047 75.2564 50.0846 75.5096 50.1067C75.7623 50.1287 76.02 50.0906 76.2241 50.0015C76.5268 49.876 76.8108 49.7365 77.074 49.5842C78.099 48.9914 78.7802 48.2297 79.0229 47.4044C79.6961 47.4702 80.3224 47.6453 80.8289 47.9093L80.8281 47.9088Z" fill="url(#paint3_linear_16_243)"/>
</g>
<defs>
<filter id="filter0_b_16_243" x="-105.72" y="-114.546" width="377.166" height="330.835" filterUnits="userSpaceOnUse" color-interpolation-filters="sRGB">
<feFlood flood-opacity="0" result="BackgroundImageFix"/>
<feGaussianBlur in="BackgroundImageFix" stdDeviation="64.8607"/>
<feComposite in2="SourceAlpha" operator="in" result="effect1_backgroundBlur_16_243"/>
<feBlend mode="normal" in="SourceGraphic" in2="effect1_backgroundBlur_16_243" result="shape"/>
</filter>
<filter id="filter1_i_16_243" x="53.2178" y="26.7466" width="62.1269" height="36.2147" filterUnits="userSpaceOnUse" color-interpolation-filters="sRGB">
<feFlood flood-opacity="0" result="BackgroundImageFix"/>
<feBlend mode="normal" in="SourceGraphic" in2="BackgroundImageFix" result="shape"/>
<feColorMatrix in="SourceAlpha" type="matrix" values="0 0 0 0 0 0 0 0 0 0 0 0 0 0 0 0 0 0 127 0" result="hardAlpha"/>
<feOffset dx="0.827273" dy="0.827273"/>
<feGaussianBlur stdDeviation="0.827273"/>
<feComposite in2="hardAlpha" operator="arithmetic" k2="-1" k3="1"/>
<feColorMatrix type="matrix" values="0 0 0 0 1 0 0 0 0 1 0 0 0 0 1 0 0 0 0.12 0"/>
<feBlend mode="normal" in2="shape" result="effect1_innerShadow_16_243"/>
</filter>
<linearGradient id="paint0_linear_16_243" x1="8.22527" y1="38.6129" x2="49.9009" y2="77.7002" gradientUnits="userSpaceOnUse">
<stop stop-color="white" stop-opacity="0.43"/>
<stop offset="0.846595" stop-color="white" stop-opacity="0.44"/>
<stop offset="1" stop-color="white" stop-opacity="0"/>
</linearGradient>
<linearGradient id="paint1_linear_16_243" x1="34.2022" y1="44.2145" x2="62.8431" y2="88.5095" gradientUnits="userSpaceOnUse">
<stop stop-color="white" stop-opacity="0"/>
<stop offset="0.846595" stop-color="white" stop-opacity="0.06"/>
<stop offset="1" stop-color="white" stop-opacity="0.23"/>
</linearGradient>
<linearGradient id="paint2_linear_16_243" x1="8.22527" y1="38.6129" x2="49.9009" y2="77.7002" gradientUnits="userSpaceOnUse">
<stop stop-color="white" stop-opacity="0.43"/>
<stop offset="0.846595" stop-color="white" stop-opacity="0.44"/>
<stop offset="1" stop-color="white" stop-opacity="0"/>
</linearGradient>
<linearGradient id="paint3_linear_16_243" x1="134.502" y1="48.671" x2="92.9574" y2="20.9992" gradientUnits="userSpaceOnUse">
<stop stop-color="#3C3F46" stop-opacity="0.5"/>
<stop offset="1" stop-color="#3C3F46"/>
</linearGradient>
</defs>
</svg>
