<svg width="180" height="115" viewBox="0 0 180 115" fill="none" xmlns="http://www.w3.org/2000/svg">
<path d="M139.921 44.9349C162.624 58.041 160.52 85.6379 138.457 96.8153C115.755 109.921 78.947 109.921 56.2446 96.8153C33.0635 84.1525 32.0496 58.3382 54.752 45.2321C77.4543 32.126 117.219 31.8288 139.921 44.9349Z" fill="#1864F8"/>
<circle cx="47.4644" cy="47.4644" r="46.4644" transform="matrix(0.866044 -0.499967 0.866044 0.499967 15.1385 67.5388)" fill="#3383FF" stroke="url(#paint0_linear_16_262)" stroke-width="2"/>
<path d="M48.6496 77.1447C13.0266 60.7673 25.0937 37.3194 35.5801 27.6426C45.9123 28.4522 71.8739 30.349 93.0627 31.4593C119.549 32.8472 120.705 74.6002 108.677 79.3422C96.6481 84.0842 98.6143 85.4721 48.6496 77.1447Z" fill="#337EFF"/>
<g filter="url(#filter0_b_16_262)">
<path d="M122.462 75.0488L122.416 75.0722L122.371 75.0981C111.376 81.4458 96.8452 84.674 82.2119 84.674C67.5787 84.674 53.0481 81.4458 42.0525 75.0981L42.0331 75.0869L42.0135 75.0762C30.8888 68.9992 25.3333 59.9269 25.0458 51.0515C24.759 42.1958 29.7012 33.0637 40.5599 26.795C51.544 20.4538 66.8099 17.1437 82.2067 17.0705C97.605 16.9972 112.862 20.1627 123.836 26.4978C134.629 32.7291 139.357 42.2691 138.946 51.4363C138.533 60.6302 132.938 69.7416 122.462 75.0488Z" fill="white" fill-opacity="0.5" stroke="url(#paint1_linear_16_262)" stroke-width="3.78745"/>
</g>
<circle cx="47.4644" cy="47.4644" r="46.4644" transform="matrix(0.866044 -0.499967 0.866044 0.499967 0 47.4612)" fill="white" fill-opacity="0.5" stroke="url(#paint2_linear_16_262)" stroke-width="2"/>
<g filter="url(#filter1_i_16_262)">
<path d="M99.7222 32.7365L94.8035 34.872C92.7828 34.1751 90.5966 33.652 88.3144 33.3191L87.454 29.8029C87.3868 29.527 86.9774 29.322 86.4947 29.322L78.1101 29.3218C77.6278 29.322 77.219 29.527 77.1512 29.8025L76.2907 33.3187L76.2904 33.3189C74.0075 33.6518 71.8213 34.1749 69.8003 34.8724L64.8822 32.7365C64.4969 32.5691 63.9573 32.5908 63.616 32.7875L57.687 36.2103C57.3456 36.4074 57.3077 36.7191 57.598 36.9417L61.2969 39.7804C60.0897 40.9473 59.1832 42.2096 58.6062 43.5273L52.5161 44.024C52.0382 44.0632 51.6831 44.2992 51.6831 44.5778L51.6834 49.4183L51.6838 49.4181C51.6831 49.6967 52.0382 49.9331 52.5161 49.9714L58.6069 50.469C59.1842 51.7865 60.0903 53.0486 61.2972 54.2153L57.5981 57.0549C57.3081 57.2773 57.3457 57.5889 57.6864 57.7859L63.6153 61.2087C63.9567 61.4058 64.4967 61.4277 64.8823 61.2601L69.8014 59.124L69.8014 59.1244C71.8221 59.8213 74.008 60.3446 76.2901 60.6775L77.1506 64.1937C77.2177 64.4696 77.6272 64.6746 78.1098 64.6746L86.4941 64.6746L86.4938 64.6744C86.9764 64.6748 87.3855 64.4696 87.4527 64.1937L88.3138 60.6779L88.3141 60.6777C90.597 60.3448 92.7832 59.8217 94.8043 59.1242L99.722 61.2599C100.107 61.4277 100.648 61.4058 100.989 61.2087L106.918 57.7863C107.259 57.5893 107.297 57.2775 107.006 57.0549L103.307 54.2159C104.515 53.0492 105.421 51.7869 105.998 50.4694L112.088 49.9724C112.566 49.9335 112.921 49.6973 112.921 49.4187L112.921 44.5784L112.921 44.5786C112.921 44.3 112.566 44.0638 112.088 44.025L105.998 43.5279L105.998 43.5277C105.421 42.21 104.514 40.9481 103.307 39.7814L107.007 36.9422L107.006 36.942C107.297 36.7195 107.259 36.4074 106.918 36.2104L100.989 32.7876C100.647 32.5909 100.108 32.5692 99.7223 32.7366L99.7222 32.7365ZM104.956 36.659L101.365 39.4147C101.122 39.6007 101.105 39.8544 101.322 40.0508C102.707 41.3087 103.704 42.6963 104.267 44.1512C104.355 44.3782 104.678 44.5501 105.077 44.5827L110.988 45.0651L110.985 48.9334L105.074 49.4158C104.675 49.4482 104.353 49.6199 104.265 49.8469C103.701 51.3018 102.705 52.6896 101.32 53.948C101.104 54.1445 101.121 54.3977 101.363 54.5841L104.954 57.339L100.214 60.0754L95.4419 58.0024C95.119 57.8625 94.6804 57.8527 94.3401 57.9774C92.1599 58.7776 89.7556 59.3531 87.2344 59.6786C86.8414 59.7291 86.5437 59.9153 86.4877 60.1457L85.654 63.5569L78.9511 63.5573L78.1148 60.1442L78.1151 60.144C78.0587 59.9134 77.7607 59.7274 77.367 59.6768C74.8473 59.3514 72.4442 58.7763 70.2651 57.9767C69.9248 57.8515 69.4858 57.8616 69.1633 58.0016L64.3905 60.0754L59.6502 57.3388L63.241 54.5831C63.4837 54.3969 63.5008 54.1437 63.2843 53.947C61.8982 52.6888 60.9011 51.301 60.3376 49.8457C60.25 49.6189 59.9275 49.447 59.5284 49.4147L53.6189 48.933L53.6193 45.0636L59.5301 44.5811L59.5305 44.5809C59.9295 44.5486 60.2517 44.3765 60.3393 44.1496C60.9024 42.6946 61.8996 41.3072 63.2846 40.0488C63.5008 39.8523 63.4837 39.5991 63.2414 39.4127L59.6506 36.6577L64.3908 33.9212L69.163 35.9941L69.1633 35.9939C69.4858 36.134 69.9245 36.1439 70.2648 36.0187C72.4449 35.2193 74.8489 34.6437 77.3697 34.318C77.7627 34.2674 78.0607 34.0814 78.1168 33.8511L78.9525 30.4387L85.6551 30.4385L86.4914 33.8516C86.5478 34.0822 86.8458 34.2682 87.2392 34.3189C89.7589 34.644 92.162 35.2195 94.3411 36.0191C94.6817 36.1441 95.1207 36.134 95.4429 35.9941L100.217 33.921L104.956 36.659ZM69.1819 46.9987C69.1835 48.3489 69.8092 49.6741 70.9946 50.8382C72.18 52.0023 73.8815 52.9625 75.9244 53.6198C76.3915 53.7702 76.559 54.1106 76.2986 54.3803C76.0381 54.65 75.4485 54.7467 74.9816 54.5965C71.644 53.5242 69.1369 51.7599 67.968 49.6606C66.7983 47.5613 67.0544 45.2841 68.6831 43.2898C70.3122 41.2954 73.1931 39.7326 76.7426 38.918C77.2393 38.8037 77.8025 38.944 77.9999 39.2308C78.1979 39.5175 77.9552 39.8428 77.4585 39.9568C75.0105 40.5128 72.9109 41.4824 71.4343 42.739C69.9572 43.9955 69.1722 45.4802 69.1819 46.9987ZM81.3422 38.1964L79.6736 45.655C79.0728 46.0468 78.7577 46.5577 78.7943 47.0806C78.8312 47.6033 79.2169 48.098 79.8706 48.4603C80.5247 48.8228 81.3957 49.0252 82.3025 49.0253C83.2094 49.0253 84.0803 48.8228 84.7344 48.4603C85.3882 48.098 85.7739 47.6033 85.8108 47.0806C85.8473 46.5577 85.5322 46.0467 84.9315 45.655L83.2631 38.1965L83.2628 38.1963C83.2084 37.9135 82.7939 37.6994 82.3006 37.6994C81.8076 37.6996 81.3931 37.9133 81.3384 38.1963L81.3422 38.1964ZM83.0551 45.9847L83.0548 45.9849C83.083 46.1167 83.1914 46.2382 83.3609 46.3282C83.8368 46.5786 84.0005 46.9711 83.7747 47.3193C83.5488 47.6674 82.9782 47.9011 82.3342 47.9094C81.6902 47.9174 81.1028 47.6984 80.8504 47.3563C80.5981 47.0141 80.732 46.6179 81.1884 46.3555L81.2438 46.3236C81.4126 46.2335 81.521 46.112 81.5499 45.9802L82.2999 42.6278L83.0551 45.9847ZM82.987 54.7366C83.2639 54.8965 83.3468 55.1369 83.1971 55.3458C83.0474 55.5546 82.694 55.6908 82.3027 55.6908C81.911 55.691 81.558 55.555 81.4083 55.3462C81.2579 55.1373 81.3405 54.897 81.617 54.737C81.9952 54.5186 82.6084 54.5184 82.987 54.7366ZM92.9497 52.3545C93.2273 52.5143 93.3105 52.7549 93.1605 52.964C93.0108 53.1733 92.6574 53.3095 92.2657 53.3097C91.8737 53.3097 91.5203 53.1735 91.3703 52.9644C91.2203 52.7553 91.3029 52.5147 91.5801 52.3547C91.9583 52.1363 92.5715 52.1361 92.9497 52.3545ZM97.0761 46.603C97.3533 46.763 97.4365 47.0037 97.2868 47.2125C97.1371 47.4218 96.7837 47.5584 96.3917 47.5584C95.9997 47.5584 95.6463 47.4222 95.4963 47.2131C95.3463 47.0041 95.4292 46.7632 95.7061 46.6034C96.0843 46.385 96.6975 46.3848 97.0761 46.603ZM92.9494 40.8521C93.2263 41.012 93.3091 41.2524 93.1595 41.4613C93.0094 41.6699 92.6567 41.8061 92.265 41.8063C91.8737 41.8063 91.5207 41.6703 91.3703 41.4615C91.2203 41.2528 91.3032 41.0123 91.5797 40.8523C91.7613 40.7475 92.0073 40.6884 92.2644 40.6884C92.5215 40.6884 92.7678 40.7473 92.9494 40.8521Z" fill="url(#paint3_linear_16_262)"/>
</g>
<defs>
<filter id="filter0_b_16_262" x="-106.581" y="-114.546" width="377.166" height="330.835" filterUnits="userSpaceOnUse" color-interpolation-filters="sRGB">
<feFlood flood-opacity="0" result="BackgroundImageFix"/>
<feGaussianBlur in="BackgroundImageFix" stdDeviation="64.8607"/>
<feComposite in2="SourceAlpha" operator="in" result="effect1_backgroundBlur_16_262"/>
<feBlend mode="normal" in="SourceGraphic" in2="effect1_backgroundBlur_16_262" result="shape"/>
</filter>
<filter id="filter1_i_16_262" x="51.6831" y="29.3218" width="62.0653" height="36.1801" filterUnits="userSpaceOnUse" color-interpolation-filters="sRGB">
<feFlood flood-opacity="0" result="BackgroundImageFix"/>
<feBlend mode="normal" in="SourceGraphic" in2="BackgroundImageFix" result="shape"/>
<feColorMatrix in="SourceAlpha" type="matrix" values="0 0 0 0 0 0 0 0 0 0 0 0 0 0 0 0 0 0 127 0" result="hardAlpha"/>
<feOffset dx="0.827273" dy="0.827273"/>
<feGaussianBlur stdDeviation="0.827273"/>
<feComposite in2="hardAlpha" operator="arithmetic" k2="-1" k3="1"/>
<feColorMatrix type="matrix" values="0 0 0 0 1 0 0 0 0 1 0 0 0 0 1 0 0 0 0.12 0"/>
<feBlend mode="normal" in2="shape" result="effect1_innerShadow_16_262"/>
</filter>
<linearGradient id="paint0_linear_16_262" x1="8.22527" y1="38.6129" x2="49.9009" y2="77.7002" gradientUnits="userSpaceOnUse">
<stop stop-color="white" stop-opacity="0.43"/>
<stop offset="0.846595" stop-color="white" stop-opacity="0.44"/>
<stop offset="1" stop-color="white" stop-opacity="0"/>
</linearGradient>
<linearGradient id="paint1_linear_16_262" x1="33.3406" y1="44.2148" x2="61.9816" y2="88.5098" gradientUnits="userSpaceOnUse">
<stop stop-color="white" stop-opacity="0"/>
<stop offset="0.846595" stop-color="white" stop-opacity="0.06"/>
<stop offset="1" stop-color="white" stop-opacity="0.23"/>
</linearGradient>
<linearGradient id="paint2_linear_16_262" x1="8.22527" y1="38.6129" x2="49.9009" y2="77.7002" gradientUnits="userSpaceOnUse">
<stop stop-color="white" stop-opacity="0.43"/>
<stop offset="0.846595" stop-color="white" stop-opacity="0.44"/>
<stop offset="1" stop-color="white" stop-opacity="0"/>
</linearGradient>
<linearGradient id="paint3_linear_16_262" x1="143.092" y1="57.0939" x2="83.4414" y2="30.0337" gradientUnits="userSpaceOnUse">
<stop stop-color="#3C3F46" stop-opacity="0.5"/>
<stop offset="1" stop-color="#3C3F46"/>
</linearGradient>
</defs>
</svg>
