<svg width="180" height="115" viewBox="0 0 180 115" fill="none" xmlns="http://www.w3.org/2000/svg">
<path d="M139.783 44.9349C162.485 58.041 160.382 85.6379 138.319 96.8153C115.616 109.921 78.8085 109.921 56.1062 96.8153C32.9251 84.1525 31.9112 58.3382 54.6135 45.2321C77.3159 32.126 117.08 31.8288 139.783 44.9349Z" fill="#1864F8"/>
<circle cx="47.4644" cy="47.4644" r="46.4644" transform="matrix(0.866044 -0.499967 0.866044 0.499967 15 67.5388)" fill="#3383FF" stroke="url(#paint0_linear_16_276)" stroke-width="2"/>
<path d="M48.511 77.1447C12.8881 60.7673 24.9551 37.3194 35.4416 27.6426C45.7738 28.4522 71.7354 30.349 92.9241 31.4593C119.41 32.8472 120.567 74.6002 108.538 79.3422C96.5095 84.0842 98.4757 85.4721 48.511 77.1447Z" fill="#337EFF"/>
<g filter="url(#filter0_b_16_276)">
<path d="M122.324 75.0486L122.278 75.072L122.233 75.0978C111.237 81.4456 96.7067 84.6737 82.0735 84.6737C67.4402 84.6737 52.9096 81.4456 41.914 75.0978L41.8947 75.0867L41.8751 75.076C30.7503 68.999 25.1948 59.9267 24.9074 51.0512C24.6206 42.1956 29.5628 33.0634 40.4214 26.7947C51.4056 20.4536 66.6714 17.1435 82.0683 17.0703C97.4666 16.997 112.723 20.1624 123.697 26.4976C134.491 32.7288 139.219 42.2689 138.807 51.4361C138.394 60.6299 132.8 69.7414 122.324 75.0486Z" fill="white" fill-opacity="0.5" stroke="url(#paint1_linear_16_276)" stroke-width="3.78745"/>
</g>
<circle cx="47.4644" cy="47.4644" r="46.4644" transform="matrix(0.866044 -0.499967 0.866044 0.499967 0 47.4612)" fill="white" fill-opacity="0.5" stroke="url(#paint2_linear_16_276)" stroke-width="2"/>
<g filter="url(#filter1_i_16_276)">
<path d="M56.4148 51.2944C57.5786 50.6225 57.5609 49.5173 56.3753 48.8328C55.1897 48.1483 53.28 48.1409 52.1162 48.8128C50.9523 49.4847 50.9701 50.5899 52.1509 51.2716C53.3412 51.9533 55.2509 51.9663 56.4148 51.2944ZM53.5605 49.6466C53.9388 49.4282 54.5625 49.4287 54.9528 49.654C55.3382 49.8765 55.3488 50.2366 54.9657 50.4578C54.5874 50.6762 53.9637 50.6756 53.5734 50.4504C53.1928 50.2251 53.1822 49.865 53.5605 49.6466ZM82.8049 27.5979L48.5021 47.4009C46.0211 48.8332 46.0589 51.1886 48.5863 52.6477L72.3234 66.3511C74.8508 67.8101 78.9308 67.832 81.4118 66.3997L115.71 46.5995C118.191 45.1672 118.153 42.8118 115.626 41.3527L91.8885 27.6493C89.3611 26.1903 85.2859 26.1657 82.8048 27.598L82.8049 27.5979ZM49.9513 48.2375L84.2492 28.4373C85.9447 27.4585 88.7388 27.4735 90.466 28.4706L94.0523 30.5409L53.5944 53.8969L50.0081 51.8265C48.2812 50.8296 48.2553 49.2166 49.9508 48.2378L49.9513 48.2375ZM114.27 45.7627L79.9673 65.5657C78.2718 66.5445 75.4777 66.5296 73.7505 65.5325L55.0443 54.7334L95.5019 31.3772L114.208 42.1763C115.94 43.1709 115.966 44.7839 114.27 45.7627ZM67.046 42.6721C66.646 42.4412 66.6449 42.0701 67.0327 41.8462L86.0566 30.8633C86.4493 30.6367 87.0923 30.6429 87.4874 30.871C87.8825 31.099 87.8885 31.473 87.5006 31.6969L68.4816 42.677C68.089 42.9036 67.4457 42.9032 67.0458 42.6723L67.046 42.6721ZM95.963 35.7635C96.3629 35.9944 96.3641 36.3655 95.9762 36.5894L76.9569 47.5693C76.5642 47.796 75.9212 47.7898 75.5261 47.5617C75.131 47.3336 75.125 46.9596 75.5129 46.7357L94.5322 35.7558C94.92 35.526 95.5633 35.5324 95.9633 35.7633L95.963 35.7635ZM98.7685 37.3831C99.1684 37.614 99.1696 37.9852 98.7817 38.2091L79.7624 49.1889C79.3698 49.4156 78.7268 49.4094 78.3317 49.1813C77.9365 48.9532 77.9305 48.5793 78.3184 48.3553L97.3378 37.3755C97.7307 37.1486 98.3688 37.152 98.7688 37.3829L98.7685 37.3831ZM101.574 39.0027C101.974 39.2336 101.975 39.6048 101.587 39.8287L82.5679 50.8086C82.1753 51.0352 81.5323 51.029 81.1372 50.8009C80.7421 50.5728 80.7361 50.1989 81.1239 49.975L100.143 38.9951C100.536 38.7683 101.179 38.7745 101.574 39.0026L101.574 39.0027ZM106.599 41.9039C106.999 42.1348 107.001 42.506 106.613 42.7299L73.5883 61.7952C73.1957 62.0219 72.5527 62.0157 72.1576 61.7876C71.7625 61.5595 71.7565 61.1855 72.1443 60.9616L105.168 41.8967C105.561 41.6699 106.204 41.6761 106.599 41.9042L106.599 41.9039ZM110.308 44.0447C110.708 44.2756 110.709 44.6467 110.321 44.8706L77.2962 63.9358C76.9036 64.1624 76.2606 64.1562 75.8655 63.9281C75.4704 63.7 75.4644 63.3261 75.8522 63.1022L108.876 44.0375C109.269 43.8107 109.907 43.8141 110.307 44.045L110.308 44.0447ZM76.8617 57.3364C80.2863 55.3594 80.2339 52.1108 76.7456 50.097C73.2569 48.0831 67.6298 48.0531 64.2056 50.03C60.781 52.007 60.8334 55.2555 64.3217 57.2693C67.8103 59.2833 73.4371 59.3134 76.8617 57.3364ZM69.8909 57.6033L70.825 57.0641C71.3548 57.2428 71.8792 57.385 72.3836 57.4992C71.5688 57.6206 70.7281 57.6554 69.8909 57.6033ZM68.7997 54.6842C68.2142 54.3461 67.7111 54.0113 67.2901 53.6855L68.2048 53.1574L71.4493 55.0305L70.5346 55.5585C69.97 55.3099 69.3853 55.0222 68.7997 54.6842ZM72.2676 52.6822C72.8531 53.0202 73.3562 53.355 73.7821 53.6837L72.8674 54.2118L69.6229 52.3387L70.5376 51.8106C71.1021 52.0537 71.682 52.3442 72.2676 52.6822ZM74.3213 55.0456L74.9151 54.7028C75.2844 55.115 75.5126 55.4845 75.6046 55.7865L74.3213 55.0456ZM68.1785 51.4994L66.8952 50.7585C67.4182 50.8116 68.0584 50.9434 68.7723 51.1566L68.1785 51.4994ZM66.7559 52.3206L66.1621 52.6634C65.7929 52.2513 65.5646 51.8817 65.4726 51.5798L66.7559 52.3206ZM72.8987 55.8669L74.182 56.6077C73.659 56.5546 73.0188 56.4229 72.3049 56.2097L72.8987 55.8669ZM77.144 54.7454C76.9458 54.4541 76.6995 54.1513 76.3902 53.8456L77.3243 53.3064C77.4189 53.7927 77.359 54.2778 77.144 54.7454ZM76.67 52.0165L75.2138 52.8572C74.7587 52.5226 74.2604 52.1906 73.6897 51.8612C73.1236 51.5343 72.5436 51.2439 71.9693 50.9841L73.4255 50.1435C74.1099 50.3341 74.7572 50.5916 75.323 50.9183C75.8943 51.2477 76.3401 51.6213 76.67 52.0165ZM71.1863 49.7629L70.2523 50.3022C69.7225 50.1235 69.198 49.9812 68.6936 49.867C69.5085 49.7456 70.3488 49.7111 71.1863 49.7629ZM63.928 52.6182C64.1261 52.9096 64.3725 53.2124 64.6817 53.518L63.7477 54.0573C63.6579 53.5738 63.7181 53.0885 63.928 52.6182ZM64.4068 55.3499L65.863 54.5093C66.3181 54.8438 66.8164 55.1758 67.3822 55.5025C67.9484 55.8293 68.5284 56.1198 69.1075 56.3824L67.6514 57.223C66.967 57.0324 66.3196 56.7749 65.7489 56.4454C65.178 56.1213 64.737 55.7451 64.4068 55.3499ZM61.223 48.5182C62.3868 47.8463 62.3691 46.7411 61.1835 46.0567C59.9979 45.3722 58.0882 45.3647 56.9243 46.0366C55.7605 46.7085 55.7782 47.8137 56.959 48.4954C58.1494 49.1771 60.0591 49.1901 61.223 48.5182ZM58.3687 46.8705C58.747 46.6521 59.3707 46.6526 59.761 46.8779C60.1464 47.1004 60.1569 47.4605 59.7739 47.6817C59.3955 47.9001 58.7718 47.8995 58.3816 47.6742C58.0009 47.449 57.9904 47.0889 58.3687 46.8705ZM66.0365 45.7394C67.2003 45.0675 67.1826 43.9623 65.997 43.2778C64.8114 42.5934 62.9017 42.5859 61.7378 43.2578C60.574 43.9297 60.5917 45.0349 61.7725 45.7166C62.9629 46.3983 64.8773 46.4086 66.0365 45.7394ZM63.1822 44.0916C63.5605 43.8732 64.1842 43.8738 64.5745 44.0991C64.9599 44.3216 64.9705 44.6817 64.5874 44.9028C64.209 45.1212 63.5853 45.1207 63.1951 44.8954C62.8145 44.6701 62.8039 44.31 63.1822 44.0916Z" fill="url(#paint3_linear_16_276)"/>
</g>
<defs>
<filter id="filter0_b_16_276" x="-106.72" y="-114.546" width="377.166" height="330.835" filterUnits="userSpaceOnUse" color-interpolation-filters="sRGB">
<feFlood flood-opacity="0" result="BackgroundImageFix"/>
<feGaussianBlur in="BackgroundImageFix" stdDeviation="64.8607"/>
<feComposite in2="SourceAlpha" operator="in" result="effect1_backgroundBlur_16_276"/>
<feBlend mode="normal" in="SourceGraphic" in2="effect1_backgroundBlur_16_276" result="shape"/>
</filter>
<filter id="filter1_i_16_276" x="46.6658" y="26.5393" width="71.7076" height="41.7477" filterUnits="userSpaceOnUse" color-interpolation-filters="sRGB">
<feFlood flood-opacity="0" result="BackgroundImageFix"/>
<feBlend mode="normal" in="SourceGraphic" in2="BackgroundImageFix" result="shape"/>
<feColorMatrix in="SourceAlpha" type="matrix" values="0 0 0 0 0 0 0 0 0 0 0 0 0 0 0 0 0 0 127 0" result="hardAlpha"/>
<feOffset dx="0.827273" dy="0.827273"/>
<feGaussianBlur stdDeviation="0.827273"/>
<feComposite in2="hardAlpha" operator="arithmetic" k2="-1" k3="1"/>
<feColorMatrix type="matrix" values="0 0 0 0 1 0 0 0 0 1 0 0 0 0 1 0 0 0 0.12 0"/>
<feBlend mode="normal" in2="shape" result="effect1_innerShadow_16_276"/>
</filter>
<linearGradient id="paint0_linear_16_276" x1="8.22527" y1="38.6129" x2="49.9009" y2="77.7002" gradientUnits="userSpaceOnUse">
<stop stop-color="white" stop-opacity="0.43"/>
<stop offset="0.846595" stop-color="white" stop-opacity="0.44"/>
<stop offset="1" stop-color="white" stop-opacity="0"/>
</linearGradient>
<linearGradient id="paint1_linear_16_276" x1="33.2022" y1="44.2145" x2="61.8431" y2="88.5095" gradientUnits="userSpaceOnUse">
<stop stop-color="white" stop-opacity="0"/>
<stop offset="0.846595" stop-color="white" stop-opacity="0.06"/>
<stop offset="1" stop-color="white" stop-opacity="0.23"/>
</linearGradient>
<linearGradient id="paint2_linear_16_276" x1="8.22527" y1="38.6129" x2="49.9009" y2="77.7002" gradientUnits="userSpaceOnUse">
<stop stop-color="white" stop-opacity="0.43"/>
<stop offset="0.846595" stop-color="white" stop-opacity="0.44"/>
<stop offset="1" stop-color="white" stop-opacity="0"/>
</linearGradient>
<linearGradient id="paint3_linear_16_276" x1="133.502" y1="51.673" x2="91.9574" y2="24.0012" gradientUnits="userSpaceOnUse">
<stop stop-color="#3C3F46" stop-opacity="0.5"/>
<stop offset="1" stop-color="#3C3F46"/>
</linearGradient>
</defs>
</svg>
