<svg width="180" height="115" viewBox="0 0 180 115" fill="none" xmlns="http://www.w3.org/2000/svg">
<path d="M139.921 44.9349C162.624 58.041 160.52 85.6379 138.457 96.8153C115.755 109.921 78.947 109.921 56.2446 96.8153C33.0635 84.1525 32.0496 58.3382 54.752 45.2321C77.4543 32.126 117.219 31.8288 139.921 44.9349Z" fill="#1864F8"/>
<circle cx="47.4644" cy="47.4644" r="46.4644" transform="matrix(0.866044 -0.499967 0.866044 0.499967 15.1385 67.5388)" fill="#3383FF" stroke="url(#paint0_linear_16_288)" stroke-width="2"/>
<path d="M48.6496 77.1444C13.0266 60.7671 25.0937 37.3191 35.5801 27.6423C45.9123 28.4519 71.8739 30.3488 93.0627 31.4591C119.549 32.847 120.705 74.5999 108.677 79.3419C96.6481 84.084 98.6143 85.4719 48.6496 77.1444Z" fill="#337EFF"/>
<g filter="url(#filter0_b_16_288)">
<path d="M122.462 75.0486L122.416 75.072L122.371 75.0978C111.376 81.4456 96.8452 84.6737 82.2119 84.6737C67.5787 84.6737 53.0481 81.4456 42.0525 75.0978L42.0331 75.0867L42.0135 75.076C30.8888 68.999 25.3333 59.9267 25.0458 51.0512C24.759 42.1956 29.7012 33.0634 40.5599 26.7947C51.544 20.4536 66.8099 17.1435 82.2067 17.0703C97.605 16.997 112.862 20.1624 123.836 26.4976C134.629 32.7288 139.357 42.2689 138.946 51.4361C138.533 60.6299 132.938 69.7414 122.462 75.0486Z" fill="white" fill-opacity="0.5" stroke="url(#paint1_linear_16_288)" stroke-width="3.78745"/>
</g>
<circle cx="47.4644" cy="47.4644" r="46.4644" transform="matrix(0.866044 -0.499967 0.866044 0.499967 0 47.4612)" fill="white" fill-opacity="0.5" stroke="url(#paint2_linear_16_288)" stroke-width="2"/>
<path d="M97.8309 44.021L95.1815 44.4252C93.8004 42.1258 90.7442 40.3615 86.7619 39.5634L88.0269 36.7998C93.6098 37.1005 96.7456 33.1988 92.7804 30.9097C90.432 29.554 86.6236 29.5464 84.2911 30.893C81.3768 32.5755 82.2276 35.4677 86.0567 36.4902L84.7918 39.2549C80.8287 38.8275 76.6108 39.4182 73.3891 41.0193L69.8241 38.9612C71.4677 37.6128 71.2411 35.7277 69.1408 34.5152C66.7927 33.1597 62.9843 33.1521 60.6518 34.4987C58.3192 35.8453 58.3322 38.0439 60.6803 39.3994C62.7806 40.612 66.0447 40.7424 68.3806 39.7945L71.946 41.8528C69.1734 43.7127 68.1504 46.1475 68.8914 48.435L66.4971 48.8C64.745 44.7815 56.0273 43.394 50.9515 46.3242C47.3341 48.4126 47.3371 51.8113 50.9569 53.901C56.8807 57.3208 66.9931 54.7949 66.7779 49.9762L69.4259 49.5724C70.8077 51.8706 73.8639 53.6345 77.8458 54.432L76.5799 57.1974C70.9956 56.8974 67.8615 60.7981 71.8274 63.0876C74.1758 64.4434 77.9842 64.4509 80.3167 63.1043C83.2321 61.4213 82.3795 58.5285 78.5494 57.507L79.8146 54.7409C84.1312 55.2061 88.294 54.4278 91.2139 52.9773L94.7823 55.0373C93.1395 56.3857 93.3664 58.2702 95.4664 59.4825C97.8144 60.8381 101.623 60.8456 103.955 59.499C106.288 58.1524 106.275 55.9538 103.927 54.5983C101.826 53.3858 98.5614 53.2552 96.2255 54.2038L92.6571 52.1438C95.417 50.2932 96.4514 47.8445 95.714 45.563L98.1111 45.1975C99.8647 49.2178 108.577 50.605 113.655 47.6734C117.272 45.585 117.271 42.1875 113.654 40.0992C107.716 36.6712 97.6131 39.2089 97.8294 44.0221L97.8309 44.021ZM112.213 46.8394C107.604 49.4997 99.6029 47.5346 99.873 43.7091C100.127 40.0816 107.764 38.3643 112.21 40.9312C115.032 42.5602 115.032 45.2102 112.211 46.8388L112.213 46.8394ZM83.1317 53.6785C80.4023 51.8944 80.6681 49.2457 83.4314 47.6504C86.247 46.025 90.8357 45.9278 93.8745 47.4782C93.4817 50.8155 88.9125 53.4526 83.1313 53.6787L83.1317 53.6785ZM76.4976 46.7377C74.7366 45.7211 75.1104 43.9943 77.3098 43.2834C80.7389 42.1749 84.4866 44.4678 82.3685 46.3789C81.0699 47.5497 78.207 47.7245 76.497 46.7373L76.4976 46.7377ZM93.7306 45.8651C93.7786 46.0257 93.784 45.9819 93.5198 45.8973C90.9372 45.069 87.7631 44.9502 84.9462 45.6587C85.6316 42.7465 79.9728 40.7633 75.8326 42.4303C70.8112 44.4514 73.9628 48.997 79.9816 48.5248C78.726 50.1886 78.961 52.0812 80.5354 53.6118C71.5841 52.8015 67.6336 46.6515 73.3887 42.6862C79.6646 38.3621 92.0301 40.2101 93.7304 45.8653L93.7306 45.8651ZM85.7617 34.9609C84.2091 34.0646 84.196 32.6139 85.7328 31.7266C87.2697 30.8394 89.7826 30.8469 91.3352 31.7433C95.0137 33.8669 89.5115 37.1259 85.7615 34.9611L85.7617 34.9609ZM67.6959 35.3478C69.5147 36.3978 69.1834 38.1883 66.9031 38.9416C65.3932 39.4405 63.4217 39.3158 62.1222 38.5656C60.5699 37.6694 60.5568 36.2187 62.0936 35.3315C63.6305 34.4443 66.1433 34.4518 67.6957 35.348L67.6959 35.3478ZM64.7334 50.287C64.4736 53.927 56.8182 55.6187 52.3983 53.0671C49.5743 51.4368 49.572 48.7856 52.393 47.1571C57.0458 44.471 65.0026 46.4917 64.7328 50.2871L64.7334 50.287ZM78.8442 59.0354C80.3968 59.9317 80.4099 61.3824 78.873 62.2696C77.3362 63.1569 74.8233 63.1493 73.2706 62.253C69.5912 60.1288 75.0968 56.8717 78.8444 59.0352L78.8442 59.0354ZM102.511 58.6638C100.974 59.5511 98.4614 59.5435 96.9091 58.6474C95.6095 57.8971 95.3934 56.759 96.2576 55.8873C97.5598 54.574 100.659 54.3768 102.483 55.4296C104.035 56.3257 104.048 57.7765 102.511 58.6637L102.511 58.6638ZM111.165 45.1117C111.03 45.3818 110.992 45.302 111.109 45.37C112.065 45.9214 110.621 46.7548 109.666 46.2034C109.576 46.1516 109.615 46.1541 109.548 46.171C108.163 46.5134 106.31 46.1964 106.8 45.444C106.999 45.1387 107.588 44.9854 108.115 45.1001C108.587 45.2028 109.209 45.037 109.244 44.6727C109.288 44.2181 108.354 43.9897 107.814 44.3013C105.559 45.6031 101.863 44.1019 103.151 42.4426C102.086 41.8274 103.536 40.9979 104.594 41.6086C106.009 41.2416 107.876 41.5745 107.388 42.3226C107.19 42.6276 106.601 42.7808 106.073 42.6665C105.218 42.4811 104.551 43.105 105.178 43.4673C105.462 43.6308 106.017 43.6711 106.37 43.4673C108.441 42.2718 112.008 43.4382 111.165 45.1112L111.165 45.1117ZM61.4558 51.5555C62.5147 52.1668 61.0762 53.0031 60.0123 52.3889C59.3296 52.5652 58.5419 52.5894 57.8179 52.4319C56.5543 52.1574 57.2732 51.0549 58.5369 51.329C59.4316 51.5236 60.1009 50.8415 59.3471 50.499C59.0165 50.3492 58.5412 50.3542 58.2365 50.5302C55.9941 51.8247 52.2764 50.3422 53.5736 48.6714C52.5107 48.0578 53.9539 47.2242 55.0168 47.8379C55.7666 47.6468 56.5426 47.6472 57.2152 47.7925C58.4658 48.0638 57.767 49.1717 56.4966 48.8956C55.632 48.7077 54.9849 49.3405 55.6008 49.696C55.9294 49.8857 56.4644 49.8857 56.793 49.696C59.0286 48.4054 62.7698 49.8623 61.4559 51.5548L61.4558 51.5555Z" fill="url(#paint3_linear_16_288)"/>
<defs>
<filter id="filter0_b_16_288" x="-106.581" y="-114.546" width="377.166" height="330.835" filterUnits="userSpaceOnUse" color-interpolation-filters="sRGB">
<feFlood flood-opacity="0" result="BackgroundImageFix"/>
<feGaussianBlur in="BackgroundImageFix" stdDeviation="64.8607"/>
<feComposite in2="SourceAlpha" operator="in" result="effect1_backgroundBlur_16_288"/>
<feBlend mode="normal" in="SourceGraphic" in2="effect1_backgroundBlur_16_288" result="shape"/>
</filter>
<linearGradient id="paint0_linear_16_288" x1="8.22527" y1="38.6129" x2="49.9009" y2="77.7002" gradientUnits="userSpaceOnUse">
<stop stop-color="white" stop-opacity="0.43"/>
<stop offset="0.846595" stop-color="white" stop-opacity="0.44"/>
<stop offset="1" stop-color="white" stop-opacity="0"/>
</linearGradient>
<linearGradient id="paint1_linear_16_288" x1="33.3406" y1="44.2145" x2="61.9816" y2="88.5095" gradientUnits="userSpaceOnUse">
<stop stop-color="white" stop-opacity="0"/>
<stop offset="0.846595" stop-color="white" stop-opacity="0.06"/>
<stop offset="1" stop-color="white" stop-opacity="0.23"/>
</linearGradient>
<linearGradient id="paint2_linear_16_288" x1="8.22527" y1="38.6129" x2="49.9009" y2="77.7002" gradientUnits="userSpaceOnUse">
<stop stop-color="white" stop-opacity="0.43"/>
<stop offset="0.846595" stop-color="white" stop-opacity="0.44"/>
<stop offset="1" stop-color="white" stop-opacity="0"/>
</linearGradient>
<linearGradient id="paint3_linear_16_288" x1="143.095" y1="57.0957" x2="83.4407" y2="30.0363" gradientUnits="userSpaceOnUse">
<stop stop-color="#3C3F46" stop-opacity="0.5"/>
<stop offset="1" stop-color="#3C3F46"/>
</linearGradient>
</defs>
</svg>
