<svg width="124" height="50" viewBox="0 0 124 50" fill="none" xmlns="http://www.w3.org/2000/svg">
<path d="M43.3444 34.0156C42.3348 32.0002 40.8933 30.2064 39.0498 28.9036C36.2173 26.902 33.1281 25.1993 30.1106 23.4908C28.0996 22.353 26.0967 21.2359 24.0144 20.2341C23.68 20.0729 23.4142 20.5201 23.7231 20.7274C27.351 23.1653 31.1316 25.373 34.7955 27.7616C36.3982 28.8067 38.3431 29.8333 39.6562 31.2449C40.398 32.0421 41.0467 33.0042 41.6082 33.9304C42.2122 34.9263 43.292 36.6449 41.5146 36.8872C39.1457 37.21 36.6241 36.4822 34.4006 35.7429C32.1275 34.9872 29.9011 34.0948 27.7527 33.0395C24.3268 31.3577 21.119 29.2997 17.8978 27.2686C17.9667 25.712 18.0623 24.1561 18.1554 22.6002C19.5996 21.774 21.0587 20.9731 22.5138 20.167C25.2836 18.6324 27.9613 16.8945 30.8309 15.5479C33.5275 14.2822 36.4287 13.1662 39.379 12.6488C39.9616 12.5465 40.8421 12.3942 41.3028 12.5357C41.5013 12.5961 41.6293 12.7213 41.6496 12.7949C41.9319 13.8281 40.6662 15.2987 39.9549 16.0831C37.6506 18.6236 34.7137 20.5907 31.8292 22.4197C30.8943 23.013 31.7615 24.4969 32.703 23.8996C35.703 21.9969 38.7805 19.9365 41.1787 17.2948C42.1985 16.1715 43.4207 14.6822 43.4184 13.0787C43.4129 8.66061 35.7406 11.7933 33.9053 12.473C30.3486 13.7913 27.2057 15.6514 23.9423 17.5405C22.0515 18.6348 20.1387 19.6943 18.2435 20.7825C18.3617 17.8881 18.3934 14.9764 18.7951 12.1107C19.2066 9.17404 19.7981 6.0759 21.0348 3.35513C21.4357 2.47392 21.8272 1.70081 22.6634 1.74733C23.7796 1.81011 24.5727 3.33113 24.9587 4.31503C26.1777 7.41982 26.1868 10.9804 26.1174 14.2573C26.0943 15.3605 27.8259 15.3605 27.8489 14.2573C27.9198 10.8955 27.8658 7.28619 26.7089 4.07793C26.1812 2.61348 25.3539 1.00846 23.8561 0.322564C19.7401 -1.5635 18.4368 5.33316 17.8868 7.76406C17.0193 11.6036 16.8721 15.3904 16.719 19.3035C16.6877 20.1118 16.6482 20.9206 16.6078 21.7289C15.8217 22.1943 15.0407 22.6694 14.2691 23.1596C13.7833 23.4685 13.31 23.7975 12.8327 24.1203C10.447 22.6221 8.12628 21.0596 6.0009 19.1341C4.61976 17.8832 3.16065 16.528 2.18511 14.9291C1.93299 14.5164 1.76661 14.1231 1.73999 13.7763C1.70593 13.333 1.75917 13.0819 2.09468 12.8319C2.49361 12.5343 3.3772 12.5219 3.98364 12.5796C7.95487 12.9598 11.8834 15.4403 15.2194 17.3969C16.1801 17.9603 17.0519 16.4796 16.0932 15.917C12.6203 13.8798 8.74379 11.5752 4.68005 10.9521C3.13876 10.7161 1.14256 10.77 0.309931 12.3266C-0.395141 13.6437 0.216756 15.1372 1.00795 16.2525C3.4876 19.749 7.24196 22.7058 10.8867 24.9383C11.0229 25.022 11.1599 25.1072 11.2966 25.1909C10.6134 25.6842 9.93968 26.1891 9.27883 26.7119C8.38272 25.7497 6.80659 25.4409 5.54872 26.1403C3.85158 27.0843 3.36151 29.5059 4.39388 31.0843C3.33765 32.193 2.36712 33.4032 1.6327 34.7331C1.10459 35.6903 0.42805 36.9636 0.992232 38.0499C1.99524 39.9821 5.41607 39.3182 7.10689 39.04C9.64016 38.6234 11.9155 37.6485 14.0139 36.1844C14.3181 35.9721 14.0601 35.5326 13.7226 35.6911C11.8823 36.556 9.92126 37.4412 7.90082 37.7554C6.44371 37.9821 4.06187 38.5099 2.68814 37.7721C1.20047 36.9738 3.72011 33.945 5.48811 32.0923C7.59664 33.2687 10.7838 32.0093 10.3977 29.2723C10.3394 28.8596 10.2078 28.4341 10.0238 28.0268C10.8863 27.3401 11.7621 26.6701 12.6651 26.0362C13.8795 26.786 15.0959 27.535 16.3142 28.2833C16.2848 29.3595 16.2711 30.4356 16.284 31.5129C16.3345 35.6856 16.7217 40.0227 17.8621 44.0523C18.3656 45.8318 19.8336 50.9687 22.6328 49.8395C24.7062 49.0032 25.7733 45.7919 26.4322 43.8636C27.2594 41.4435 27.3412 38.6538 27.2707 36.1234C27.2621 35.8173 26.7504 35.7158 26.7039 36.0475C26.1574 39.9614 25.7165 43.8075 23.4405 47.1692C23.0635 47.7265 22.3658 48.822 21.5809 48.4237C21.0179 48.1377 20.5736 47.0104 20.314 46.4748C19.8481 45.513 19.5115 44.4899 19.2331 43.4611C18.2795 39.9355 17.9154 36.1964 17.8206 32.5566C17.7913 31.4405 17.805 30.3257 17.8331 29.2111C19.8489 30.4357 21.8775 31.6393 23.9349 32.7766C28.316 35.1978 33.2593 37.5043 38.2604 38.2371C39.7512 38.4553 42.4387 38.8843 43.556 37.5218C44.4028 36.4909 43.8704 35.0626 43.3454 34.0159L43.3444 34.0156ZM14.2283 24.9893C14.3904 24.8831 14.5478 24.7699 14.711 24.6653C15.3065 24.2848 15.9094 23.9166 16.5154 23.5547C16.4684 24.477 16.4234 25.3993 16.3847 26.3212C15.6647 25.8733 14.9452 25.431 14.2283 24.9893Z" fill="#5C42F5"/>
<path d="M67.628 21H65.576L59.402 11.658V21H57.35V8.472H59.402L65.576 17.796V8.472H67.628V21ZM79.4127 15.798C79.4127 16.17 79.3887 16.506 79.3407 16.806H71.7627C71.8227 17.598 72.1167 18.234 72.6447 18.714C73.1727 19.194 73.8207 19.434 74.5887 19.434C75.6927 19.434 76.4727 18.972 76.9287 18.048H79.1427C78.8427 18.96 78.2967 19.71 77.5047 20.298C76.7247 20.874 75.7527 21.162 74.5887 21.162C73.6407 21.162 72.7887 20.952 72.0327 20.532C71.2887 20.1 70.7007 19.5 70.2687 18.732C69.8487 17.952 69.6387 17.052 69.6387 16.032C69.6387 15.012 69.8427 14.118 70.2507 13.35C70.6707 12.57 71.2527 11.97 71.9967 11.55C72.7527 11.13 73.6167 10.92 74.5887 10.92C75.5247 10.92 76.3587 11.124 77.0907 11.532C77.8227 11.94 78.3927 12.516 78.8007 13.26C79.2087 13.992 79.4127 14.838 79.4127 15.798ZM77.2707 15.15C77.2587 14.394 76.9887 13.788 76.4607 13.332C75.9327 12.876 75.2787 12.648 74.4987 12.648C73.7907 12.648 73.1847 12.876 72.6807 13.332C72.1767 13.776 71.8767 14.382 71.7807 15.15H77.2707ZM94.752 11.082L91.674 21H89.514L87.516 13.674L85.518 21H83.358L80.262 11.082H82.35L84.42 19.056L86.526 11.082H88.668L90.684 19.02L92.736 11.082H94.752ZM66.404 34.09C66.08 33.466 65.63 32.998 65.054 32.686C64.478 32.362 63.812 32.2 63.056 32.2C62.228 32.2 61.49 32.386 60.842 32.758C60.194 33.13 59.684 33.658 59.312 34.342C58.952 35.026 58.772 35.818 58.772 36.718C58.772 37.618 58.952 38.416 59.312 39.112C59.684 39.796 60.194 40.324 60.842 40.696C61.49 41.068 62.228 41.254 63.056 41.254C64.172 41.254 65.078 40.942 65.774 40.318C66.47 39.694 66.896 38.848 67.052 37.78H62.354V36.142H69.248V37.744C69.116 38.716 68.768 39.61 68.204 40.426C67.652 41.242 66.926 41.896 66.026 42.388C65.138 42.868 64.148 43.108 63.056 43.108C61.88 43.108 60.806 42.838 59.834 42.298C58.862 41.746 58.088 40.984 57.512 40.012C56.948 39.04 56.666 37.942 56.666 36.718C56.666 35.494 56.948 34.396 57.512 33.424C58.088 32.452 58.862 31.696 59.834 31.156C60.818 30.604 61.892 30.328 63.056 30.328C64.388 30.328 65.57 30.658 66.602 31.318C67.646 31.966 68.402 32.89 68.87 34.09H66.404ZM80.3619 37.798C80.3619 38.17 80.3379 38.506 80.2899 38.806H72.7119C72.7719 39.598 73.0659 40.234 73.5939 40.714C74.1219 41.194 74.7699 41.434 75.5379 41.434C76.6419 41.434 77.4219 40.972 77.8779 40.048H80.0919C79.7919 40.96 79.2459 41.71 78.4539 42.298C77.6739 42.874 76.7019 43.162 75.5379 43.162C74.5899 43.162 73.7379 42.952 72.9819 42.532C72.2379 42.1 71.6499 41.5 71.2179 40.732C70.7979 39.952 70.5879 39.052 70.5879 38.032C70.5879 37.012 70.7919 36.118 71.1999 35.35C71.6199 34.57 72.2019 33.97 72.9459 33.55C73.7019 33.13 74.5659 32.92 75.5379 32.92C76.4739 32.92 77.3079 33.124 78.0399 33.532C78.7719 33.94 79.3419 34.516 79.7499 35.26C80.1579 35.992 80.3619 36.838 80.3619 37.798ZM78.2199 37.15C78.2079 36.394 77.9379 35.788 77.4099 35.332C76.8819 34.876 76.2279 34.648 75.4479 34.648C74.7399 34.648 74.1339 34.876 73.6299 35.332C73.1259 35.776 72.8259 36.382 72.7299 37.15H78.2199ZM87.3853 32.92C88.1653 32.92 88.8613 33.082 89.4733 33.406C90.0973 33.73 90.5833 34.21 90.9313 34.846C91.2793 35.482 91.4533 36.25 91.4533 37.15V43H89.4193V37.456C89.4193 36.568 89.1973 35.89 88.7533 35.422C88.3093 34.942 87.7033 34.702 86.9353 34.702C86.1673 34.702 85.5553 34.942 85.0993 35.422C84.6553 35.89 84.4333 36.568 84.4333 37.456V43H82.3813V33.082H84.4333V34.216C84.7693 33.808 85.1953 33.49 85.7113 33.262C86.2393 33.034 86.7973 32.92 87.3853 32.92ZM95.1147 31.768C94.7427 31.768 94.4307 31.642 94.1787 31.39C93.9267 31.138 93.8007 30.826 93.8007 30.454C93.8007 30.082 93.9267 29.77 94.1787 29.518C94.4307 29.266 94.7427 29.14 95.1147 29.14C95.4747 29.14 95.7807 29.266 96.0327 29.518C96.2847 29.77 96.4107 30.082 96.4107 30.454C96.4107 30.826 96.2847 31.138 96.0327 31.39C95.7807 31.642 95.4747 31.768 95.1147 31.768ZM96.1227 33.082V43H94.0707V33.082H96.1227ZM107.799 33.082V43H105.747V41.83C105.423 42.238 104.997 42.562 104.469 42.802C103.953 43.03 103.401 43.144 102.813 43.144C102.033 43.144 101.331 42.982 100.707 42.658C100.095 42.334 99.6088 41.854 99.2488 41.218C98.9008 40.582 98.7268 39.814 98.7268 38.914V33.082H100.761V38.608C100.761 39.496 100.983 40.18 101.427 40.66C101.871 41.128 102.477 41.362 103.245 41.362C104.013 41.362 104.619 41.128 105.063 40.66C105.519 40.18 105.747 39.496 105.747 38.608V33.082H107.799ZM114.106 43.162C113.326 43.162 112.624 43.024 112 42.748C111.388 42.46 110.902 42.076 110.542 41.596C110.182 41.104 109.99 40.558 109.966 39.958H112.09C112.126 40.378 112.324 40.732 112.684 41.02C113.056 41.296 113.518 41.434 114.07 41.434C114.646 41.434 115.09 41.326 115.402 41.11C115.726 40.882 115.888 40.594 115.888 40.246C115.888 39.874 115.708 39.598 115.348 39.418C115 39.238 114.442 39.04 113.674 38.824C112.93 38.62 112.324 38.422 111.856 38.23C111.388 38.038 110.98 37.744 110.632 37.348C110.296 36.952 110.128 36.43 110.128 35.782C110.128 35.254 110.284 34.774 110.596 34.342C110.908 33.898 111.352 33.55 111.928 33.298C112.516 33.046 113.188 32.92 113.944 32.92C115.072 32.92 115.978 33.208 116.662 33.784C117.358 34.348 117.73 35.122 117.778 36.106H115.726C115.69 35.662 115.51 35.308 115.186 35.044C114.862 34.78 114.424 34.648 113.872 34.648C113.332 34.648 112.918 34.75 112.63 34.954C112.342 35.158 112.198 35.428 112.198 35.764C112.198 36.028 112.294 36.25 112.486 36.43C112.678 36.61 112.912 36.754 113.188 36.862C113.464 36.958 113.872 37.084 114.412 37.24C115.132 37.432 115.72 37.63 116.176 37.834C116.644 38.026 117.046 38.314 117.382 38.698C117.718 39.082 117.892 39.592 117.904 40.228C117.904 40.792 117.748 41.296 117.436 41.74C117.124 42.184 116.68 42.532 116.104 42.784C115.54 43.036 114.874 43.162 114.106 43.162Z" fill="#3C3F46"/>
</svg>
