<svg width="147" height="48" viewBox="0 0 147 48" fill="none" xmlns="http://www.w3.org/2000/svg">
<g clip-path="url(#clip0_2_31)">
<rect width="48" height="48" rx="24" fill="#0096FF"/>
<path fill-rule="evenodd" clip-rule="evenodd" d="M29.7004 33.8357C31.0184 34.4431 31.5127 33.1705 31.5127 33.1705L35 14.717C34.9725 13.4733 33.3799 14.2253 33.3799 14.2253L13.8564 22.2951C13.8564 22.2951 12.9228 22.6422 13.0051 23.2496C13.0875 23.857 13.8289 24.1462 13.8289 24.1462L18.7441 25.8817C18.7441 25.8817 20.2269 31.0012 20.529 31.9846C20.8036 32.9391 21.0507 32.968 21.0507 32.968C21.3253 33.0837 21.5724 32.8812 21.5724 32.8812L24.7577 29.8442L29.7004 33.8357ZM30.5511 17.9853C30.5511 17.9853 31.2375 17.5514 31.2101 17.9853C31.2101 17.9853 31.3199 18.0432 30.9629 18.4481C30.6334 18.7952 22.8625 26.1419 21.819 27.1253C21.7366 27.1831 21.6817 27.2699 21.6817 27.3856L21.3797 30.1044C21.3247 30.3937 20.9678 30.4226 20.8854 30.1623L19.5948 25.708C19.5399 25.5345 19.5948 25.332 19.7596 25.2163L30.5511 17.9853Z" fill="white"/>
</g>
<path d="M62.172 17.098C61.528 17.098 60.9493 16.986 60.436 16.762C59.932 16.5287 59.5353 16.2113 59.246 15.81C58.9567 15.3993 58.8073 14.928 58.798 14.396H60.156C60.2027 14.8533 60.3893 15.2407 60.716 15.558C61.052 15.866 61.5373 16.02 62.172 16.02C62.7787 16.02 63.2547 15.8707 63.6 15.572C63.9547 15.264 64.132 14.872 64.132 14.396C64.132 14.0227 64.0293 13.7193 63.824 13.486C63.6187 13.2527 63.362 13.0753 63.054 12.954C62.746 12.8327 62.3307 12.702 61.808 12.562C61.164 12.394 60.646 12.226 60.254 12.058C59.8713 11.89 59.54 11.6287 59.26 11.274C58.9893 10.91 58.854 10.4247 58.854 9.818C58.854 9.286 58.9893 8.81467 59.26 8.404C59.5307 7.99333 59.9087 7.676 60.394 7.452C60.8887 7.228 61.4533 7.116 62.088 7.116C63.0027 7.116 63.7493 7.34467 64.328 7.802C64.916 8.25933 65.2473 8.866 65.322 9.622H63.922C63.8753 9.24867 63.6793 8.922 63.334 8.642C62.9887 8.35267 62.5313 8.208 61.962 8.208C61.43 8.208 60.996 8.348 60.66 8.628C60.324 8.89867 60.156 9.28133 60.156 9.776C60.156 10.1307 60.254 10.42 60.45 10.644C60.6553 10.868 60.9027 11.0407 61.192 11.162C61.4907 11.274 61.906 11.4047 62.438 11.554C63.082 11.7313 63.6 11.9087 63.992 12.086C64.384 12.254 64.72 12.52 65 12.884C65.28 13.2387 65.42 13.724 65.42 14.34C65.42 14.816 65.294 15.264 65.042 15.684C64.79 16.104 64.4167 16.4447 63.922 16.706C63.4273 16.9673 62.844 17.098 62.172 17.098ZM74.0988 9.328V17H72.8248V15.866C72.5821 16.258 72.2415 16.566 71.8028 16.79C71.3735 17.0047 70.8975 17.112 70.3748 17.112C69.7775 17.112 69.2408 16.9907 68.7648 16.748C68.2888 16.496 67.9108 16.1227 67.6308 15.628C67.3601 15.1333 67.2248 14.5313 67.2248 13.822V9.328H68.4848V13.654C68.4848 14.41 68.6761 14.9933 69.0588 15.404C69.4415 15.8053 69.9641 16.006 70.6268 16.006C71.3081 16.006 71.8448 15.796 72.2368 15.376C72.6288 14.956 72.8248 14.3447 72.8248 13.542V9.328H74.0988ZM77.5239 10.756C77.7852 10.2987 78.1679 9.92533 78.6719 9.636C79.1759 9.34667 79.7499 9.202 80.3939 9.202C81.0845 9.202 81.7052 9.36533 82.2559 9.692C82.8065 10.0187 83.2405 10.4807 83.5579 11.078C83.8752 11.666 84.0339 12.352 84.0339 13.136C84.0339 13.9107 83.8752 14.6013 83.5579 15.208C83.2405 15.8147 82.8019 16.286 82.2419 16.622C81.6912 16.958 81.0752 17.126 80.3939 17.126C79.7312 17.126 79.1479 16.9813 78.6439 16.692C78.1492 16.4027 77.7759 16.034 77.5239 15.586V17H76.2499V6.64H77.5239V10.756ZM82.7319 13.136C82.7319 12.5573 82.6152 12.0533 82.3819 11.624C82.1485 11.1947 81.8312 10.868 81.4299 10.644C81.0379 10.42 80.6039 10.308 80.1279 10.308C79.6612 10.308 79.2272 10.4247 78.8259 10.658C78.4339 10.882 78.1165 11.2133 77.8739 11.652C77.6405 12.0813 77.5239 12.5807 77.5239 13.15C77.5239 13.7287 77.6405 14.2373 77.8739 14.676C78.1165 15.1053 78.4339 15.4367 78.8259 15.67C79.2272 15.894 79.6612 16.006 80.1279 16.006C80.6039 16.006 81.0379 15.894 81.4299 15.67C81.8312 15.4367 82.1485 15.1053 82.3819 14.676C82.6152 14.2373 82.7319 13.724 82.7319 13.136ZM88.4268 17.126C87.8388 17.126 87.3115 17.028 86.8448 16.832C86.3781 16.6267 86.0095 16.3467 85.7388 15.992C85.4681 15.628 85.3188 15.2127 85.2908 14.746H86.6068C86.6441 15.1287 86.8215 15.4413 87.1388 15.684C87.4655 15.9267 87.8901 16.048 88.4128 16.048C88.8981 16.048 89.2808 15.9407 89.5608 15.726C89.8408 15.5113 89.9808 15.2407 89.9808 14.914C89.9808 14.578 89.8315 14.3307 89.5328 14.172C89.2341 14.004 88.7721 13.8407 88.1468 13.682C87.5775 13.5327 87.1108 13.3833 86.7468 13.234C86.3921 13.0753 86.0841 12.8467 85.8228 12.548C85.5708 12.24 85.4448 11.8387 85.4448 11.344C85.4448 10.952 85.5615 10.5927 85.7948 10.266C86.0281 9.93933 86.3595 9.68267 86.7888 9.496C87.2181 9.3 87.7081 9.202 88.2588 9.202C89.1081 9.202 89.7941 9.41667 90.3168 9.846C90.8395 10.2753 91.1195 10.8633 91.1568 11.61H89.8828C89.8548 11.2087 89.6915 10.8867 89.3928 10.644C89.1035 10.4013 88.7115 10.28 88.2168 10.28C87.7595 10.28 87.3955 10.378 87.1248 10.574C86.8541 10.77 86.7188 11.0267 86.7188 11.344C86.7188 11.596 86.7981 11.806 86.9568 11.974C87.1248 12.1327 87.3301 12.2633 87.5728 12.366C87.8248 12.4593 88.1701 12.5667 88.6088 12.688C89.1595 12.8373 89.6075 12.9867 89.9528 13.136C90.2981 13.276 90.5921 13.4907 90.8348 13.78C91.0868 14.0693 91.2175 14.4473 91.2268 14.914C91.2268 15.334 91.1101 15.712 90.8768 16.048C90.6435 16.384 90.3121 16.65 89.8828 16.846C89.4628 17.0327 88.9775 17.126 88.4268 17.126ZM92.5493 13.15C92.5493 12.3567 92.7079 11.666 93.0253 11.078C93.3426 10.4807 93.7813 10.0187 94.3413 9.692C94.9106 9.36533 95.5593 9.202 96.2873 9.202C97.2299 9.202 98.0046 9.43067 98.6113 9.888C99.2273 10.3453 99.6333 10.98 99.8293 11.792H98.4573C98.3266 11.3253 98.0699 10.9567 97.6873 10.686C97.3139 10.4153 96.8473 10.28 96.2873 10.28C95.5593 10.28 94.9713 10.532 94.5233 11.036C94.0753 11.5307 93.8513 12.2353 93.8513 13.15C93.8513 14.074 94.0753 14.788 94.5233 15.292C94.9713 15.796 95.5593 16.048 96.2873 16.048C96.8473 16.048 97.3139 15.9173 97.6873 15.656C98.0606 15.3947 98.3173 15.0213 98.4573 14.536H99.8293C99.6239 15.32 99.2133 15.95 98.5973 16.426C97.9813 16.8927 97.2113 17.126 96.2873 17.126C95.5593 17.126 94.9106 16.9627 94.3413 16.636C93.7813 16.3093 93.3426 15.8473 93.0253 15.25C92.7079 14.6527 92.5493 13.9527 92.5493 13.15ZM102.803 10.574C103.027 10.1353 103.345 9.79467 103.755 9.552C104.175 9.30933 104.684 9.188 105.281 9.188V10.504H104.945C103.517 10.504 102.803 11.2787 102.803 12.828V17H101.529V9.328H102.803V10.574ZM107.41 8.082C107.167 8.082 106.962 7.998 106.794 7.83C106.626 7.662 106.542 7.45667 106.542 7.214C106.542 6.97133 106.626 6.766 106.794 6.598C106.962 6.43 107.167 6.346 107.41 6.346C107.643 6.346 107.839 6.43 107.998 6.598C108.166 6.766 108.25 6.97133 108.25 7.214C108.25 7.45667 108.166 7.662 107.998 7.83C107.839 7.998 107.643 8.082 107.41 8.082ZM108.026 9.328V17H106.752V9.328H108.026ZM111.471 10.756C111.732 10.2987 112.115 9.92533 112.619 9.636C113.123 9.34667 113.697 9.202 114.341 9.202C115.032 9.202 115.652 9.36533 116.203 9.692C116.754 10.0187 117.188 10.4807 117.505 11.078C117.822 11.666 117.981 12.352 117.981 13.136C117.981 13.9107 117.822 14.6013 117.505 15.208C117.188 15.8147 116.749 16.286 116.189 16.622C115.638 16.958 115.022 17.126 114.341 17.126C113.678 17.126 113.095 16.9813 112.591 16.692C112.096 16.4027 111.723 16.034 111.471 15.586V17H110.197V6.64H111.471V10.756ZM116.679 13.136C116.679 12.5573 116.562 12.0533 116.329 11.624C116.096 11.1947 115.778 10.868 115.377 10.644C114.985 10.42 114.551 10.308 114.075 10.308C113.608 10.308 113.174 10.4247 112.773 10.658C112.381 10.882 112.064 11.2133 111.821 11.652C111.588 12.0813 111.471 12.5807 111.471 13.15C111.471 13.7287 111.588 14.2373 111.821 14.676C112.064 15.1053 112.381 15.4367 112.773 15.67C113.174 15.894 113.608 16.006 114.075 16.006C114.551 16.006 114.985 15.894 115.377 15.67C115.778 15.4367 116.096 15.1053 116.329 14.676C116.562 14.2373 116.679 13.724 116.679 13.136ZM126.658 12.87C126.658 13.1127 126.644 13.3693 126.616 13.64H120.484C120.531 14.396 120.787 14.9887 121.254 15.418C121.73 15.838 122.304 16.048 122.976 16.048C123.527 16.048 123.984 15.922 124.348 15.67C124.721 15.4087 124.983 15.0633 125.132 14.634H126.504C126.299 15.3713 125.888 15.9733 125.272 16.44C124.656 16.8973 123.891 17.126 122.976 17.126C122.248 17.126 121.595 16.9627 121.016 16.636C120.447 16.3093 119.999 15.8473 119.672 15.25C119.345 14.6433 119.182 13.9433 119.182 13.15C119.182 12.3567 119.341 11.6613 119.658 11.064C119.975 10.4667 120.419 10.0093 120.988 9.692C121.567 9.36533 122.229 9.202 122.976 9.202C123.704 9.202 124.348 9.36067 124.908 9.678C125.468 9.99533 125.897 10.434 126.196 10.994C126.504 11.5447 126.658 12.17 126.658 12.87ZM125.342 12.604C125.342 12.1187 125.235 11.7033 125.02 11.358C124.805 11.0033 124.511 10.7373 124.138 10.56C123.774 10.3733 123.368 10.28 122.92 10.28C122.276 10.28 121.725 10.4853 121.268 10.896C120.82 11.3067 120.563 11.876 120.498 12.604H125.342ZM133.626 10.378V14.9C133.626 15.2733 133.705 15.5393 133.864 15.698C134.023 15.8473 134.298 15.922 134.69 15.922H135.628V17H134.48C133.771 17 133.239 16.8367 132.884 16.51C132.529 16.1833 132.352 15.6467 132.352 14.9V10.378H131.358V9.328H132.352V7.396H133.626V9.328H135.628V10.378H133.626ZM140.518 17.126C139.799 17.126 139.146 16.9627 138.558 16.636C137.979 16.3093 137.522 15.8473 137.186 15.25C136.859 14.6433 136.696 13.9433 136.696 13.15C136.696 12.366 136.864 11.6753 137.2 11.078C137.545 10.4713 138.012 10.0093 138.6 9.692C139.188 9.36533 139.846 9.202 140.574 9.202C141.302 9.202 141.96 9.36533 142.548 9.692C143.136 10.0093 143.598 10.4667 143.934 11.064C144.279 11.6613 144.452 12.3567 144.452 13.15C144.452 13.9433 144.274 14.6433 143.92 15.25C143.574 15.8473 143.103 16.3093 142.506 16.636C141.908 16.9627 141.246 17.126 140.518 17.126ZM140.518 16.006C140.975 16.006 141.404 15.8987 141.806 15.684C142.207 15.4693 142.529 15.1473 142.772 14.718C143.024 14.2887 143.15 13.766 143.15 13.15C143.15 12.534 143.028 12.0113 142.786 11.582C142.543 11.1527 142.226 10.8353 141.834 10.63C141.442 10.4153 141.017 10.308 140.56 10.308C140.093 10.308 139.664 10.4153 139.272 10.63C138.889 10.8353 138.581 11.1527 138.348 11.582C138.114 12.0113 137.998 12.534 137.998 13.15C137.998 13.7753 138.11 14.3027 138.334 14.732C138.567 15.1613 138.875 15.4833 139.258 15.698C139.64 15.9033 140.06 16.006 140.518 16.006Z" fill="#3C3F46"/>
<path d="M67.792 29.436V31.47H64.444V42H61.924V31.47H58.576V29.436H67.792ZM78.9007 36.798C78.9007 37.158 78.8767 37.482 78.8287 37.77H71.5387C71.5987 38.49 71.8507 39.054 72.2947 39.462C72.7387 39.87 73.2847 40.074 73.9327 40.074C74.8687 40.074 75.5347 39.672 75.9307 38.868H78.6487C78.3607 39.828 77.8087 40.62 76.9927 41.244C76.1767 41.856 75.1747 42.162 73.9867 42.162C73.0267 42.162 72.1627 41.952 71.3947 41.532C70.6387 41.1 70.0447 40.494 69.6127 39.714C69.1927 38.934 68.9827 38.034 68.9827 37.014C68.9827 35.982 69.1927 35.076 69.6127 34.296C70.0327 33.516 70.6207 32.916 71.3767 32.496C72.1327 32.076 73.0027 31.866 73.9867 31.866C74.9347 31.866 75.7807 32.07 76.5247 32.478C77.2807 32.886 77.8627 33.468 78.2707 34.224C78.6907 34.968 78.9007 35.826 78.9007 36.798ZM76.2907 36.078C76.2787 35.43 76.0447 34.914 75.5887 34.53C75.1327 34.134 74.5747 33.936 73.9147 33.936C73.2907 33.936 72.7627 34.128 72.3307 34.512C71.9107 34.884 71.6527 35.406 71.5567 36.078H76.2907ZM83.26 28.68V42H80.74V28.68H83.26ZM95.0198 36.798C95.0198 37.158 94.9958 37.482 94.9478 37.77H87.6578C87.7178 38.49 87.9698 39.054 88.4138 39.462C88.8578 39.87 89.4038 40.074 90.0518 40.074C90.9878 40.074 91.6538 39.672 92.0498 38.868H94.7678C94.4798 39.828 93.9278 40.62 93.1118 41.244C92.2958 41.856 91.2938 42.162 90.1058 42.162C89.1458 42.162 88.2818 41.952 87.5138 41.532C86.7578 41.1 86.1638 40.494 85.7318 39.714C85.3118 38.934 85.1018 38.034 85.1018 37.014C85.1018 35.982 85.3118 35.076 85.7318 34.296C86.1518 33.516 86.7398 32.916 87.4958 32.496C88.2518 32.076 89.1218 31.866 90.1058 31.866C91.0538 31.866 91.8998 32.07 92.6438 32.478C93.3998 32.886 93.9818 33.468 94.3898 34.224C94.8098 34.968 95.0198 35.826 95.0198 36.798ZM92.4098 36.078C92.3978 35.43 92.1638 34.914 91.7078 34.53C91.2518 34.134 90.6938 33.936 90.0338 33.936C89.4098 33.936 88.8818 34.128 88.4498 34.512C88.0298 34.884 87.7718 35.406 87.6758 36.078H92.4098ZM100.765 31.866C101.509 31.866 102.163 32.016 102.727 32.316C103.291 32.604 103.735 32.982 104.059 33.45V32.028H106.597V42.072C106.597 42.996 106.411 43.818 106.039 44.538C105.667 45.27 105.109 45.846 104.365 46.266C103.621 46.698 102.721 46.914 101.665 46.914C100.249 46.914 99.0852 46.584 98.1732 45.924C97.2732 45.264 96.7632 44.364 96.6432 43.224H99.1452C99.2772 43.68 99.5592 44.04 99.9912 44.304C100.435 44.58 100.969 44.718 101.593 44.718C102.325 44.718 102.919 44.496 103.375 44.052C103.831 43.62 104.059 42.96 104.059 42.072V40.524C103.735 40.992 103.285 41.382 102.709 41.694C102.145 42.006 101.497 42.162 100.765 42.162C99.9252 42.162 99.1572 41.946 98.4612 41.514C97.7652 41.082 97.2132 40.476 96.8052 39.696C96.4092 38.904 96.2112 37.998 96.2112 36.978C96.2112 35.97 96.4092 35.076 96.8052 34.296C97.2132 33.516 97.7592 32.916 98.4432 32.496C99.1392 32.076 99.9132 31.866 100.765 31.866ZM104.059 37.014C104.059 36.402 103.939 35.88 103.699 35.448C103.459 35.004 103.135 34.668 102.727 34.44C102.319 34.2 101.881 34.08 101.413 34.08C100.945 34.08 100.513 34.194 100.117 34.422C99.7212 34.65 99.3972 34.986 99.1452 35.43C98.9052 35.862 98.7852 36.378 98.7852 36.978C98.7852 37.578 98.9052 38.106 99.1452 38.562C99.3972 39.006 99.7212 39.348 100.117 39.588C100.525 39.828 100.957 39.948 101.413 39.948C101.881 39.948 102.319 39.834 102.727 39.606C103.135 39.366 103.459 39.03 103.699 38.598C103.939 38.154 104.059 37.626 104.059 37.014ZM111.578 33.576C111.902 33.048 112.322 32.634 112.838 32.334C113.366 32.034 113.966 31.884 114.638 31.884V34.53H113.972C113.18 34.53 112.58 34.716 112.172 35.088C111.776 35.46 111.578 36.108 111.578 37.032V42H109.058V32.028H111.578V33.576ZM115.688 36.978C115.688 35.97 115.886 35.076 116.282 34.296C116.69 33.516 117.236 32.916 117.92 32.496C118.616 32.076 119.39 31.866 120.242 31.866C120.986 31.866 121.634 32.016 122.186 32.316C122.75 32.616 123.2 32.994 123.536 33.45V32.028H126.074V42H123.536V40.542C123.212 41.01 122.762 41.4 122.186 41.712C121.622 42.012 120.968 42.162 120.224 42.162C119.384 42.162 118.616 41.946 117.92 41.514C117.236 41.082 116.69 40.476 116.282 39.696C115.886 38.904 115.688 37.998 115.688 36.978ZM123.536 37.014C123.536 36.402 123.416 35.88 123.176 35.448C122.936 35.004 122.612 34.668 122.204 34.44C121.796 34.2 121.358 34.08 120.89 34.08C120.422 34.08 119.99 34.194 119.594 34.422C119.198 34.65 118.874 34.986 118.622 35.43C118.382 35.862 118.262 36.378 118.262 36.978C118.262 37.578 118.382 38.106 118.622 38.562C118.874 39.006 119.198 39.348 119.594 39.588C120.002 39.828 120.434 39.948 120.89 39.948C121.358 39.948 121.796 39.834 122.204 39.606C122.612 39.366 122.936 39.03 123.176 38.598C123.416 38.154 123.536 37.626 123.536 37.014ZM140.919 31.884C142.143 31.884 143.127 32.262 143.871 33.018C144.627 33.762 145.005 34.806 145.005 36.15V42H142.485V36.492C142.485 35.712 142.287 35.118 141.891 34.71C141.495 34.29 140.955 34.08 140.271 34.08C139.587 34.08 139.041 34.29 138.633 34.71C138.237 35.118 138.039 35.712 138.039 36.492V42H135.519V36.492C135.519 35.712 135.321 35.118 134.925 34.71C134.529 34.29 133.989 34.08 133.305 34.08C132.609 34.08 132.057 34.29 131.649 34.71C131.253 35.118 131.055 35.712 131.055 36.492V42H128.535V32.028H131.055V33.234C131.379 32.814 131.793 32.484 132.297 32.244C132.813 32.004 133.377 31.884 133.989 31.884C134.769 31.884 135.465 32.052 136.077 32.388C136.689 32.712 137.163 33.18 137.499 33.792C137.823 33.216 138.291 32.754 138.903 32.406C139.527 32.058 140.199 31.884 140.919 31.884Z" fill="#3C3F46"/>
<defs>
<clipPath id="clip0_2_31">
<rect width="48" height="48" fill="white"/>
</clipPath>
</defs>
</svg>
