<svg width="55" height="36" viewBox="0 0 55 36" fill="none" xmlns="http://www.w3.org/2000/svg">
<path opacity="0.15" fill-rule="evenodd" clip-rule="evenodd" d="M4.52539 24.73L17.2812 35.1952C20.0843 37.2126 23.9887 35.2054 23.9887 31.7475V4.24495C23.9887 1.90041 22.0922 0 19.7526 0H4.2361C1.89641 0 -6.10352e-05 1.90052 -6.10352e-05 4.24495V15.8906C-6.10352e-05 19.3954 1.68436 22.6852 4.52539 24.73ZM31.0111 15.8906V4.24495C31.0111 1.90041 32.9077 0 35.2473 0H50.7638C53.1035 0 54.9999 1.90052 54.9999 4.24495V31.7475C54.9999 35.2054 51.0952 37.2126 48.2921 35.1952L35.5363 26.013C32.6952 23.9682 31.0111 19.3953 31.0111 15.8906Z" fill="#5C42F5"/>
</svg>
